<?xml version="1.0" encoding="UTF-8"?>
<!DOCTYPE svg PUBLIC "-//W3C//DTD SVG 1.0//EN" "http://www.w3.org/TR/2001/REC-SVG-20010904/DTD/svg10.dtd">
<!-- Creator: CorelDRAW X7 -->
<svg xmlns="http://www.w3.org/2000/svg" xml:space="preserve" width="80.22mm" height="64.8034mm" version="1.0" style="shape-rendering:geometricPrecision; text-rendering:geometricPrecision; image-rendering:optimizeQuality; fill-rule:evenodd; clip-rule:evenodd"
viewBox="0 0 2049 1655"
 xmlns:xlink="http://www.w3.org/1999/xlink">
 <defs>
  <style type="text/css">
   <![CDATA[
    .fil0 {fill:#F4982E;fill-rule:nonzero}
   ]]>
  </style>
 </defs>
 <g id="Layer_x0020_1">
  <metadata id="CorelCorpID_0Corel-Layer"/>
  <path class="fil0" d="M1198 228c0,-23 -4,-46 -13,-66 -8,-21 -21,-40 -37,-56 -32,-32 -75,-51 -123,-51 -24,0 -46,4 -67,13 -21,9 -40,21 -56,38 -32,31 -51,74 -51,122 0,24 4,47 13,67 9,21 22,40 38,56 16,17 35,29 56,38 21,9 43,13 67,13 23,0 46,-4 66,-13 21,-9 40,-21 57,-38 16,-16 29,-35 37,-56 9,-20 13,-43 13,-67zm-577 412l80 40 97 0c15,-20 33,-35 54,-47 24,-12 51,-19 78,-19l208 0c8,0 15,0 23,1 7,1 13,3 20,4l192 55c2,1 5,1 9,1 2,0 5,0 7,-1 3,0 6,-1 8,-2l39 -20 -75 -119c-10,-16 -5,-36 10,-46 15,-10 36,-5 45,10l380 602 204 -117c16,-9 36,-4 45,12 9,16 3,36 -12,45l-232 133c-15,8 -35,3 -44,-12l-66 -104 -103 130c6,6 11,14 15,22 9,16 14,35 14,54 0,13 -2,25 -6,37 -4,11 -10,23 -17,33l-2 2c-11,15 -25,26 -41,34 -16,8 -34,13 -52,13l-2 0 -28 37c-12,17 -28,31 -47,40 -5,3 -11,6 -17,8 -1,4 -3,7 -5,11l-30 40c-13,18 -29,32 -48,42l-3 1c-18,9 -38,13 -59,13 -8,0 -16,0 -23,-2l-21 33c-11,16 -25,29 -42,38 -16,8 -35,13 -54,13 -7,0 -14,0 -21,-2 -7,-1 -14,-3 -20,-5l-192 -74 -8 13c-15,22 -37,36 -61,42 -25,5 -51,1 -74,-14l-1 0c-17,-11 -30,-27 -37,-44 -3,1 -6,2 -9,2 -25,5 -52,1 -75,-14 -20,-13 -34,-32 -40,-54 -24,5 -50,0 -72,-14l-7 -5c-21,-15 -34,-36 -39,-60 -2,-9 -2,-19 -1,-29 -14,-1 -27,-6 -39,-14l-1 -1c-23,-14 -38,-37 -43,-62l-1 -1c-4,-25 0,-51 14,-74l36 -55 -95 -96 -42 66c-9,15 -29,20 -44,11l-231 -132c-16,-9 -22,-29 -13,-45 9,-16 30,-21 45,-12l204 117 380 -602c9,-15 30,-20 45,-10 16,10 20,30 11,46l-68 107zm1263 304c0,19 -15,33 -33,33 -18,0 -33,-14 -33,-33 0,-18 15,-33 33,-33 18,0 33,15 33,33l0 0zm-1653 0c0,19 -15,33 -33,33 -18,0 -33,-14 -33,-33 0,-18 15,-33 33,-33 18,0 33,15 33,33l0 0zm944 601l-134 -76c-16,-9 -21,-29 -12,-45 9,-16 29,-21 45,-12l151 86c5,3 11,5 17,7 5,1 12,2 18,2 11,0 21,-2 30,-6l2 -1c10,-5 18,-13 25,-22l8 -11c-11,-3 -22,-8 -33,-15l-186 -116c-15,-9 -20,-30 -10,-45 9,-16 30,-21 45,-11l186 116c6,4 11,6 17,8 6,2 12,2 18,2 11,0 21,-2 30,-7 10,-4 18,-11 24,-20l15 -20 -258 -155c-16,-9 -21,-29 -11,-45 9,-16 29,-21 45,-11l267 160c3,2 8,4 12,5 4,1 8,2 13,2 8,0 16,-2 22,-6 7,-3 13,-8 18,-14l2 -3c3,-4 5,-9 7,-14 2,-5 3,-10 3,-16 0,-8 -2,-16 -6,-23 -4,-7 -9,-12 -15,-17l-507 -338c-3,-2 -6,-3 -9,-4 -3,-1 -6,-2 -9,-2l-44 0c-5,0 -10,2 -15,4l-1 0c-5,3 -9,6 -12,11l-27 40c-9,14 -21,25 -35,33 -14,7 -30,11 -46,12l-164 0c-6,0 -13,-2 -19,-6 -15,-10 -19,-31 -9,-46l120 -180 -67 0 -100 -50 -216 341 98 98c14,-12 30,-21 47,-24 24,-5 50,-1 73,13l1 1c10,6 18,14 25,23 15,-19 36,-32 58,-36 24,-5 51,-1 73,14l3 1 4 3c21,15 34,37 39,60 4,17 3,34 -3,51 12,2 23,7 33,14l1 0c22,15 37,38 42,63 2,7 2,15 2,24 15,1 29,6 42,14l1 1c23,15 38,38 43,62l1 2c5,24 0,50 -14,73l-15 24 178 68c3,1 6,2 9,2 2,1 5,1 9,1 8,0 16,-2 23,-6 7,-3 13,-9 17,-16l15 -22zm296 -837l-2 1 -43 22c-7,3 -14,6 -22,8 -7,2 -15,3 -22,3 -9,0 -18,-2 -27,-4l-192 -55 -11 -2c-4,-1 -9,-1 -14,-1l-208 0c-17,0 -33,4 -47,12 -14,7 -26,18 -36,32l-124 187 101 0c5,0 11,-1 15,-3 5,-3 9,-7 12,-11l27 -41c9,-13 22,-25 36,-32l2 -1c14,-7 29,-11 45,-11l44 0c9,0 19,2 28,4 9,3 18,7 27,13l475 317 119 -148 -183 -290zm-846 543c-2,4 -4,7 -6,11l-60 92c-4,6 -8,10 -12,15l-14 20c-4,8 -6,16 -4,24 1,7 6,14 12,19l5 3c8,5 16,7 24,5 8,-1 15,-6 20,-12 1,-2 2,-4 3,-6l91 -139c2,-3 4,-5 6,-8l32 -48c5,-7 6,-16 5,-24 -2,-7 -6,-14 -12,-19l-2 -1 -4 -2c-7,-5 -16,-6 -24,-5 -8,2 -15,7 -20,14l-40 61zm-57 -50c-2,-8 -7,-16 -15,-21 -7,-5 -16,-6 -24,-5 -8,2 -16,7 -21,14l-59 92c-5,8 -6,16 -5,25l0 0c2,8 7,16 15,21 7,5 16,6 25,5 4,-1 9,-3 12,-6 24,-35 47,-71 70,-106 3,-6 3,-13 2,-19l0 0zm138 290c2,-4 5,-9 7,-13l60 -93c4,-5 8,-10 12,-15l11 -16c4,-7 5,-15 3,-23 -1,-8 -6,-15 -13,-20l-2 -1c-7,-5 -16,-6 -24,-5 -6,2 -12,5 -17,10 -32,48 -64,97 -96,145 -4,7 -5,15 -3,23 2,8 7,16 14,21 8,5 17,6 25,5 8,-2 16,-7 21,-15l2 -3zm182 -58c-2,-8 -7,-16 -15,-21 -7,-5 -16,-6 -24,-4 -5,1 -9,3 -13,5l-71 109c-2,5 -2,11 -1,16l0 0c2,9 7,17 15,22 7,4 16,6 25,4 8,-2 15,-6 20,-14l59 -92c5,-7 7,-16 5,-24l0 -1zm14 -1197c-6,-5 -8,-12 -8,-19 0,-7 2,-14 8,-19 5,-5 12,-8 19,-8 7,0 14,2 19,8l52 51 119 -99c6,-5 13,-7 20,-6 6,0 13,4 18,9l0 1c5,5 7,13 6,19 0,7 -4,14 -9,19l-138 114c-5,5 -12,7 -18,7 -7,0 -14,-3 -19,-8l-69 -69zm284 -169c21,21 38,46 50,74 11,27 17,57 17,87 0,31 -6,61 -17,88 -12,28 -29,53 -50,74 -21,21 -46,38 -74,50 -27,11 -57,17 -87,17 -31,0 -61,-6 -88,-17 -28,-12 -53,-29 -74,-50 -41,-41 -67,-98 -67,-162 0,-30 6,-60 17,-87 12,-28 29,-53 50,-74 41,-41 98,-67 162,-67 30,0 60,6 87,17 28,12 53,29 74,50z"/>
 </g>
</svg>
