<?xml version="1.0" encoding="UTF-8"?>
<!DOCTYPE svg PUBLIC "-//W3C//DTD SVG 1.0//EN" "http://www.w3.org/TR/2001/REC-SVG-20010904/DTD/svg10.dtd">
<!-- Creator: CorelDRAW X7 -->
<svg xmlns="http://www.w3.org/2000/svg" xml:space="preserve" width="59.7962mm" height="64.5927mm" version="1.0" style="shape-rendering:geometricPrecision; text-rendering:geometricPrecision; image-rendering:optimizeQuality; fill-rule:evenodd; clip-rule:evenodd"
viewBox="0 0 548 592"
 xmlns:xlink="http://www.w3.org/1999/xlink">
 <defs>
  <style type="text/css">
   <![CDATA[
    .str0 {stroke:#F4982E;stroke-width:23.0698}
    .fil0 {fill:none}
    .fil1 {fill:#F4982E;fill-rule:nonzero}
   ]]>
  </style>
 </defs>
 <g id="Layer_x0020_1">
  <metadata id="CorelCorpID_0Corel-Layer"/>
  <g>
   <path class="fil0 str0" d="M190 247l0 0m174 -80l0 0m0 0l-74 -67c-4,-4 -8,-5 -13,-5 -5,0 -9,1 -13,5l-74 67c-3,3 -5,7 -5,12 0,9 7,16 16,16l29 0c2,0 4,1 4,3l0 113m85 -2l0 -111c0,-2 1,-3 3,-3l31 0c9,0 16,-7 16,-16 0,-5 -2,-9 -5,-12m0 0l0 0m167 -83l0 0m0 0l-74 -67c-3,-4 -8,-5 -13,-5 -4,0 -9,1 -13,5l-73 67c-4,3 -6,7 -6,12 0,9 8,16 16,16l30 0c2,0 3,1 3,3l0 253c0,9 7,16 16,16l53 0c9,0 16,-7 16,-16l0 -253c0,-2 1,-3 3,-3l31 0c9,0 16,-7 16,-16 0,-5 -2,-9 -5,-12m0 0l0 0m-341 163l-74 -67c-3,-3 -8,-5 -13,-5 -4,0 -9,2 -12,5l-74 67c-4,3 -5,8 -5,12 0,9 7,16 15,16l30 0c2,0 3,1 3,3l0 126c0,9 7,16 16,16l53 0c9,0 16,-7 16,-16l0 -126c0,-2 1,-3 3,-3l31 0c9,0 16,-7 16,-16 0,-4 -2,-9 -5,-12m0 0l0 0m90 56c77,0 139,62 139,139 0,76 -62,138 -139,138 -76,0 -138,-62 -138,-138 0,-77 62,-139 138,-139z"/>
  </g>
  <path class="fil1" d="M331 482c0,-4 -2,-7 -4,-9 -2,-2 -5,-3 -8,-3 -3,0 -6,1 -9,3 -2,2 -3,5 -3,9 0,3 1,6 3,8 3,2 6,3 9,3 3,0 6,-1 8,-3 2,-2 4,-5 4,-8zm-84 -84c0,-4 -1,-6 -4,-9 -2,-2 -5,-3 -8,-3 -3,0 -6,1 -8,3 -2,3 -4,5 -4,9 0,3 2,6 4,8 2,2 5,4 8,4 3,0 6,-2 8,-4 3,-2 4,-5 4,-8zm7 -19c4,5 7,12 7,19 0,7 -3,14 -7,18 -5,5 -12,8 -19,8 -7,0 -14,-3 -18,-8 -5,-4 -8,-11 -8,-18 0,-7 3,-14 8,-19 4,-5 11,-7 18,-7 7,0 14,2 19,7zm71 2c3,-3 8,-3 10,0 3,3 3,8 0,10l-106 107c-3,3 -8,3 -10,0 -3,-3 -3,-7 0,-10l106 -107zm12 82c5,5 8,11 8,19 0,7 -3,13 -8,18 -4,5 -11,8 -18,8 -7,0 -14,-3 -19,-8 -4,-5 -7,-11 -7,-18 0,-8 3,-14 7,-19 5,-5 12,-8 19,-8 7,0 14,3 18,8z"/>
 </g>
</svg>
