<?xml version="1.0" encoding="UTF-8"?>
<!DOCTYPE svg PUBLIC "-//W3C//DTD SVG 1.0//EN" "http://www.w3.org/TR/2001/REC-SVG-20010904/DTD/svg10.dtd">
<!-- Creator: CorelDRAW X7 -->
<svg xmlns="http://www.w3.org/2000/svg" xml:space="preserve" width="67.1556mm" height="62.7218mm" version="1.0" style="shape-rendering:geometricPrecision; text-rendering:geometricPrecision; image-rendering:optimizeQuality; fill-rule:evenodd; clip-rule:evenodd"
viewBox="0 0 768 717"
 xmlns:xlink="http://www.w3.org/1999/xlink">
 <defs>
  <style type="text/css">
   <![CDATA[
    .fil0 {fill:#FEFEFE}
   ]]>
  </style>
 </defs>
 <g id="Layer_x0020_1">
  <metadata id="CorelCorpID_0Corel-Layer"/>
  <g id="_468549984">
   <path class="fil0" d="M415 652l0 0zm-63 0l0 0zm63 0c0,-7 51,-168 58,-189l15 -47c1,-4 3,-12 4,-17l150 0 -21 24c-3,3 -5,5 -7,8 -4,3 -4,5 -7,8 -3,3 -5,5 -8,8l-35 39c-3,4 -3,5 -7,9l-142 157zm-108 -253l153 0 -47 152c-3,11 -6,20 -9,31 -3,11 -7,21 -10,31 -2,7 -8,25 -9,32l-3 0c0,-8 -51,-167 -55,-184l-20 -62zm45 253c-6,-4 -34,-38 -43,-46l-28 -32c-5,-7 -9,-10 -14,-16 -2,-3 -4,-5 -7,-8 -3,-3 -4,-5 -7,-8l-113 -127c-4,-3 -4,-4 -7,-8 -3,-4 -5,-4 -7,-8l150 0c1,11 75,242 76,253zm228 -391c2,5 46,72 51,80l17 27 -138 0c12,-18 23,-36 35,-54 4,-7 30,-49 35,-53zm-198 2l3 0c1,4 6,9 8,13l42 65c3,4 5,7 8,12 3,5 7,9 8,15l-135 0c2,-6 30,-48 33,-53l25 -38c3,-4 7,-11 8,-14zm-192 -2c2,7 13,21 17,27l51 80 -138 0 34 -54c6,-9 31,-49 36,-53zm293 93c-7,-2 -15,-19 -19,-25 -5,-7 -50,-76 -52,-81l138 0 -67 106zm-266 -106l138 0c-1,4 -66,104 -69,106 -11,-17 -22,-35 -34,-53l-35 -53zm-136 130c0,25 14,31 31,53l19 20c4,4 5,7 9,11 19,19 57,66 75,84 16,16 55,64 74,83l19 21c3,4 6,6 9,11l38 42c15,19 43,18 57,0l103 -115c20,-21 57,-66 74,-83 4,-4 5,-6 9,-10 3,-4 6,-6 9,-10l19 -22c5,-4 6,-6 9,-10 7,-8 14,-14 20,-21 4,-5 5,-7 9,-11 8,-8 23,-24 23,-37 0,-15 -1,-16 -11,-30 -4,-7 -9,-14 -13,-21l-41 -63c-14,-20 -28,-52 -51,-52l-375 0c-19,0 -29,20 -36,32 -20,30 -57,84 -75,114 -2,4 -4,8 -4,14z"/>
   <path class="fil0" d="M369 15l0 98c0,17 31,25 31,-8 0,-16 3,-88 -2,-98 -7,-12 -29,-9 -29,8z"/>
   <path class="fil0" d="M108 122c0,10 18,24 29,35 11,12 26,31 37,31 8,0 15,-8 15,-15 0,-12 -54,-62 -58,-64 -13,-6 -23,6 -23,13z"/>
   <path class="fil0" d="M580 171c0,14 7,17 18,17 7,0 28,-24 33,-29 13,-14 29,-24 29,-37 0,-10 -8,-14 -17,-14 -8,0 -25,20 -34,29 -9,9 -29,26 -29,34z"/>
   <path class="fil0" d="M723 399c24,0 45,5 45,-17 0,-17 -24,-14 -36,-14 -13,0 -21,1 -24,11 -3,10 4,20 15,20z"/>
   <path class="fil0" d="M0 382l0 1 0 1c0,4 0,8 5,11 7,6 27,4 40,4 18,0 28,-31 -9,-31 -13,0 -36,-3 -36,14z"/>
   <path class="fil0" d="M369 164c0,15 30,25 30,-5 0,-8 -18,-16 -27,-5 -1,2 -3,6 -3,10z"/>
  </g>
 </g>
</svg>
