<?xml version="1.0" encoding="UTF-8"?>
<!DOCTYPE svg PUBLIC "-//W3C//DTD SVG 1.0//EN" "http://www.w3.org/TR/2001/REC-SVG-20010904/DTD/svg10.dtd">
<!-- Creator: CorelDRAW X7 -->
<svg xmlns="http://www.w3.org/2000/svg" xml:space="preserve" width="63.83mm" height="63.83mm" version="1.0" style="shape-rendering:geometricPrecision; text-rendering:geometricPrecision; image-rendering:optimizeQuality; fill-rule:evenodd; clip-rule:evenodd"
viewBox="0 0 529 529"
 xmlns:xlink="http://www.w3.org/1999/xlink">
 <defs>
  <style type="text/css">
   <![CDATA[
    .str0 {stroke:#FEFEFE;stroke-width:23.3903;stroke-linecap:round;stroke-linejoin:round}
    .fil0 {fill:none}
    .fil1 {fill:#FEFEFE;fill-rule:nonzero}
   ]]>
  </style>
 </defs>
 <g id="Layer_x0020_1">
  <metadata id="CorelCorpID_0Corel-Layer"/>
  <g id="_466891448">
   <rect class="fil0" width="529" height="529"/>
   <path class="fil0 str0" d="M329 83c57,15 102,60 117,117"/>
   <path class="fil0 str0" d="M312 147c35,9 61,35 71,70"/>
   <path class="fil1" d="M202 253c8,16 18,31 31,44 13,12 27,23 44,31l0 0c0,0 0,0 1,0 0,0 0,0 1,0 0,0 1,0 1,0 1,0 1,0 2,-1 0,0 0,0 0,0l51 -34 1 0c2,-2 4,-3 7,-4 2,-1 5,-1 8,-1 2,0 4,0 6,1 1,0 3,1 5,1l0 0 97 42 0 0c5,2 9,6 12,10l0 0 0 0c3,5 5,10 5,16 0,0 0,1 0,1l0 0c0,1 0,1 0,2 -4,28 -17,52 -37,69 -20,18 -45,28 -73,28l0 0c-81,0 -154,-33 -207,-86 -53,-53 -86,-126 -86,-207l0 0c0,-28 10,-53 28,-73 17,-20 41,-33 69,-37l0 0 0 0c0,0 1,0 2,0 0,0 1,0 1,0 6,0 11,2 16,5 0,0 1,0 1,1 4,3 7,7 9,11l42 97c0,0 0,1 0,1 1,2 1,3 1,5 1,2 1,4 1,5 0,3 0,6 -1,8 -1,3 -2,5 -3,8l-35 52 0 0c0,0 0,1 -1,1 0,1 0,1 0,2 0,0 0,1 0,1 0,0 1,1 1,1l0 0zm14 60c-14,-14 -26,-31 -35,-49 0,-1 -1,-2 -1,-2 -1,-2 -1,-3 -1,-5 -1,-2 -1,-4 -1,-6 0,-3 0,-6 1,-8 1,-3 2,-5 3,-8l0 0c12,-17 24,-34 35,-52 0,0 0,-1 0,-1 1,-1 1,-1 1,-2 0,0 0,0 0,-1 -1,0 -1,0 -1,0 -14,-32 -27,-65 -41,-98 -1,0 -1,-1 -2,-1l0 -1c-1,0 -2,0 -3,0 0,0 0,-1 0,0l0 0 0 0c-22,2 -41,13 -55,29 -13,15 -22,35 -22,57l0 0c0,75 31,142 79,191 49,49 116,79 191,79l0 0c22,0 42,-8 58,-22 15,-14 26,-33 29,-55l0 0c0,0 0,0 0,0 0,-1 -1,-2 -1,-3l0 0c-1,-1 -1,-1 -2,-1l-97 -42 0 0 0 0c-1,0 -1,0 -1,-1 0,0 -1,0 -1,0 -1,0 -1,0 -1,1 -1,0 -1,0 -2,0l-51 34 0 1c-3,1 -5,2 -8,3 -3,1 -5,2 -8,2 -2,0 -4,-1 -6,-1 -2,-1 -4,-1 -6,-2l0 0 0 0c-19,-9 -36,-21 -51,-36z"/>
  </g>
 </g>
</svg>
