<?xml version="1.0" encoding="UTF-8"?>
<!DOCTYPE svg PUBLIC "-//W3C//DTD SVG 1.0//EN" "http://www.w3.org/TR/2001/REC-SVG-20010904/DTD/svg10.dtd">
<!-- Creator: CorelDRAW X7 -->
<svg xmlns="http://www.w3.org/2000/svg" xml:space="preserve" width="53.4994mm" height="57.5733mm" version="1.0" style="shape-rendering:geometricPrecision; text-rendering:geometricPrecision; image-rendering:optimizeQuality; fill-rule:evenodd; clip-rule:evenodd"
viewBox="0 0 1604 1726"
 xmlns:xlink="http://www.w3.org/1999/xlink">
 <defs>
  <style type="text/css">
   <![CDATA[
    .fil0 {fill:#FEFEFE}
   ]]>
  </style>
 </defs>
 <g id="Layer_x0020_1">
  <metadata id="CorelCorpID_0Corel-Layer"/>
  <g id="_469015960">
   <path class="fil0" d="M856 1260l531 0c7,30 18,59 26,90l66 223c5,17 10,30 13,45l-636 0 0 -358zm-639 0l531 0 0 358 -636 0c20,-86 84,-267 105,-358zm639 -361l427 0c1,19 11,43 16,63 9,31 54,175 56,193l-499 0 0 -256zm-534 0l426 0 0 256 -499 0c3,-27 70,-229 73,-256zm-322 733c0,55 43,94 105,94l1394 0c62,0 105,-41 105,-90 0,-23 -22,-89 -30,-115l-66 -226c-13,-39 -22,-77 -34,-115l-100 -336c-16,-33 -48,-53 -95,-53l-954 0c-47,0 -78,19 -94,50 -10,21 -117,398 -133,449 -9,28 -98,324 -98,342z"/>
   <path class="fil0" d="M434 613c0,49 68,78 97,29 11,-18 8,-37 13,-63 21,-119 129,-215 236,-215 68,0 93,0 157,35 61,34 107,102 122,174 4,21 0,95 57,95 26,0 55,-27 55,-51 0,-70 -29,-152 -67,-204 -168,-232 -510,-201 -634,52 -17,35 -36,97 -36,148z"/>
   <path class="fil0" d="M748 64c0,38 -4,94 58,94 54,0 50,-67 50,-94 0,-85 -108,-85 -108,0z"/>
   <path class="fil0" d="M1268 624c0,64 72,55 105,55 73,0 66,-105 7,-105 -39,0 -77,-7 -97,15 -4,6 -15,27 -15,35z"/>
   <path class="fil0" d="M1116 256c0,54 70,90 135,-7 17,-25 12,-80 -52,-80 -24,0 -83,59 -83,87z"/>
   <path class="fil0" d="M177 624c0,64 68,55 108,55 26,0 51,-31 51,-51 0,-66 -71,-54 -112,-54 -24,0 -47,25 -47,50z"/>
   <path class="fil0" d="M430 310c36,0 58,-23 58,-51 0,-36 -61,-90 -83,-90 -22,0 -43,2 -55,29 -15,35 6,58 36,88 8,8 29,24 44,24z"/>
  </g>
 </g>
</svg>
