<?xml version="1.0" encoding="UTF-8"?>
<!DOCTYPE svg PUBLIC "-//W3C//DTD SVG 1.0//EN" "http://www.w3.org/TR/2001/REC-SVG-20010904/DTD/svg10.dtd">
<!-- Creator: CorelDRAW X7 -->
<svg xmlns="http://www.w3.org/2000/svg" xml:space="preserve" width="53.5164mm" height="57.5735mm" version="1.0" style="shape-rendering:geometricPrecision; text-rendering:geometricPrecision; image-rendering:optimizeQuality; fill-rule:evenodd; clip-rule:evenodd"
viewBox="0 0 923 993"
 xmlns:xlink="http://www.w3.org/1999/xlink">
 <defs>
  <style type="text/css">
   <![CDATA[
    .fil0 {fill:#FEFEFE}
   ]]>
  </style>
 </defs>
 <g id="Layer_x0020_1">
  <metadata id="CorelCorpID_0Corel-Layer"/>
  <g id="_236720248">
   <path class="fil0" d="M403 880l0 -5 117 0c0,64 -84,80 -110,28 -3,-5 -7,-16 -7,-23zm69 113l-24 0c-15,-2 -29,-6 -41,-13 -11,-6 -24,-16 -32,-24 -16,-18 -32,-48 -32,-81 -13,0 -26,1 -35,-15 -6,-11 -4,-86 -4,-102 0,-28 3,-44 -9,-62 -12,-19 -54,-45 -81,-96 -24,-45 -38,-84 -38,-144 0,-57 22,-117 52,-159 31,-43 62,-69 112,-95 45,-23 79,-28 133,-28 70,0 144,37 192,84 91,91 106,234 43,345 -21,37 -38,51 -66,76 -6,6 -12,11 -16,19 -10,20 -7,33 -7,62 0,23 0,47 0,70 0,34 -4,45 -39,45 0,68 -53,112 -108,118zm-109 -237l197 0 0 60 -197 0 0 -60zm-126 -285c0,-44 2,-72 23,-112 5,-10 14,-25 21,-34 24,-30 54,-55 90,-72 13,-7 25,-10 41,-14 77,-19 156,7 209,61 37,36 66,92 66,144 0,46 0,55 -16,99 -28,77 -85,89 -104,141 0,1 -2,8 -2,8 -2,5 0,6 -6,6l-200 0c-1,-22 -26,-53 -43,-66 -45,-37 -79,-102 -79,-161z"/>
   <path class="fil0" d="M320 506c0,23 10,33 33,33 11,0 33,-20 41,-27 7,-5 12,-9 19,-14 7,-5 13,-11 19,-15 0,12 -1,30 2,39 6,15 18,17 31,17 12,0 61,-42 73,-51l35 -27c21,-17 30,-18 30,-42 0,-16 -14,-25 -33,-25 -13,0 -63,45 -79,56 0,-12 2,-30 -2,-39 -6,-15 -18,-17 -31,-17 -12,0 -61,42 -73,51 -13,9 -23,18 -35,27 -12,9 -30,20 -30,34z"/>
   <path class="fil0" d="M803 460c0,40 52,31 85,31 35,0 44,-35 25,-52 -14,-13 -49,-9 -75,-9 -11,0 -18,3 -24,8 -5,4 -11,14 -11,22z"/>
   <path class="fil0" d="M0 460c0,9 5,18 10,22 14,13 50,9 75,9 11,0 18,-3 24,-8 14,-12 15,-32 1,-44 -14,-13 -49,-9 -75,-9 -21,0 -35,15 -35,30z"/>
   <path class="fil0" d="M694 198c0,15 11,29 31,29 19,0 40,-27 57,-44 28,-28 10,-57 -18,-57 -15,0 -31,21 -40,30 -10,9 -30,25 -30,42z"/>
   <path class="fil0" d="M198 227c20,0 31,-14 31,-29 0,-20 -55,-72 -70,-72 -29,0 -45,29 -19,56 17,17 39,45 58,45z"/>
   <path class="fil0" d="M33 295c0,27 30,32 54,42 11,5 24,12 35,10 21,-3 25,-17 25,-33 0,-19 -21,-25 -35,-30 -9,-4 -40,-18 -48,-18 -16,0 -31,13 -31,29z"/>
   <path class="fil0" d="M33 624c0,17 13,31 29,31 7,0 59,-20 72,-27 15,-8 19,-32 5,-46 -18,-19 -47,0 -71,9 -14,6 -35,13 -35,33z"/>
   <path class="fil0" d="M268 58c0,17 23,71 28,78 16,21 53,10 53,-18 0,-9 -22,-63 -27,-72 -15,-24 -54,-13 -54,12z"/>
   <path class="fil0" d="M574 116c0,30 35,40 52,21 5,-5 8,-16 11,-23 8,-18 19,-39 19,-56 0,-24 -38,-36 -54,-13 -4,6 -7,16 -10,23 -3,8 -18,41 -18,48z"/>
   <path class="fil0" d="M776 601c0,24 11,27 35,36 9,4 40,18 48,18 29,0 42,-34 21,-51 -7,-7 -64,-30 -73,-30 -18,0 -31,9 -31,27z"/>
   <path class="fil0" d="M776 314c0,40 30,37 56,25 7,-3 15,-6 23,-9 14,-6 35,-13 35,-33 0,-17 -13,-31 -29,-31 -7,0 -59,20 -72,27 -6,3 -13,12 -13,21z"/>
   <path class="fil0" d="M432 25l0 68c0,33 59,33 59,0l0 -68c0,-33 -59,-33 -59,0z"/>
  </g>
 </g>
</svg>
