<?xml version="1.0" encoding="UTF-8"?>
<!DOCTYPE svg PUBLIC "-//W3C//DTD SVG 1.0//EN" "http://www.w3.org/TR/2001/REC-SVG-20010904/DTD/svg10.dtd">
<!-- Creator: CorelDRAW X7 -->
<svg xmlns="http://www.w3.org/2000/svg" xml:space="preserve" width="52.4741mm" height="61.265mm" version="1.0" style="shape-rendering:geometricPrecision; text-rendering:geometricPrecision; image-rendering:optimizeQuality; fill-rule:evenodd; clip-rule:evenodd"
viewBox="0 0 714 834"
 xmlns:xlink="http://www.w3.org/1999/xlink">
 <defs>
  <style type="text/css">
   <![CDATA[
    .fil0 {fill:#FEFEFE;fill-rule:nonzero}
   ]]>
  </style>
 </defs>
 <g id="Layer_x0020_1">
  <metadata id="CorelCorpID_0Corel-Layer"/>
  <path class="fil0" d="M99 91l0 89 -16 0 0 0 -3 0 0 1 -5 -1c-10,-1 -20,-1 -29,2 -7,2 -13,6 -13,16l0 1 0 0c0,1 0,2 0,3 0,1 1,2 1,3 0,1 1,2 1,3 1,1 2,1 2,2 1,1 2,2 3,2 1,1 2,2 3,2 1,1 2,1 4,1l0 0c1,1 2,1 3,1l1 0c10,0 19,0 29,0 2,0 -4,0 14,0l5 0 0 89 -46 0c-2,0 -5,0 -7,1 -2,0 -3,1 -5,2 -1,1 -3,2 -4,3 -1,1 -2,3 -3,4 0,1 0,2 0,2 0,1 -1,1 -1,2l0 0c0,1 0,1 0,2 0,0 0,1 0,2 0,1 0,1 0,2 0,1 0,1 0,2l0 0c0,0 1,1 1,2 0,0 0,1 0,2 1,1 2,3 3,4 1,1 3,2 4,3 2,1 3,2 5,2 2,1 5,1 7,1l46 0 0 89 -49 0c-2,0 -4,0 -5,1 -2,0 -3,1 -4,2 -2,1 -3,2 -4,3 -1,1 -2,3 -2,4 -1,1 -1,1 -1,2 0,1 0,1 -1,2 0,1 0,2 0,2 0,1 0,2 0,2l0 0c0,1 0,2 0,2 0,1 0,1 0,2 1,1 1,2 1,2 0,1 0,1 1,2l0 0c0,1 1,3 2,4l0 0c1,1 3,2 4,3 2,1 4,2 6,2 2,1 5,1 8,1l44 0 0 89 -16 0c-3,0 -7,0 -10,0 -5,0 -10,0 -15,0 -5,0 -10,1 -14,2 -3,1 -6,3 -8,5 -2,3 -3,6 -3,11l0 0 0 0c0,1 0,2 0,3 0,1 1,2 1,3 0,1 1,2 1,3 1,1 2,2 2,3 1,0 2,1 3,2 0,0 1,1 2,1 1,1 2,1 2,1 1,1 2,1 2,1l1 0 52 0 0 90c0,4 1,8 1,12 1,4 2,8 3,12 1,3 3,7 4,10 2,3 4,6 7,9 2,2 4,4 7,6 2,2 5,4 8,5 2,2 5,3 9,3 3,1 6,1 9,1l16 0 0 17c0,2 1,5 1,8 1,3 2,5 3,8 1,3 3,5 4,8 2,2 4,5 6,7 3,3 5,5 8,6 2,2 5,4 7,5 3,1 6,2 8,3 3,0 5,1 8,1l427 0c2,0 4,0 6,-1 2,0 5,-1 7,-2 2,0 4,-1 6,-2 2,-2 4,-3 6,-4 2,-2 4,-4 6,-6 2,-2 3,-4 5,-6 2,-2 3,-5 4,-7 1,-2 2,-5 3,-7 0,-1 1,-1 1,-2l0 0c0,-1 0,-1 0,-2 0,-1 1,-2 1,-3 0,-1 0,-2 0,-4 0,-1 1,-2 1,-4 0,-1 0,-3 0,-4 0,-1 0,-3 0,-4 0,-1 0,-2 0,-4l0 -579c0,-3 0,-6 0,-8 0,-3 0,-6 0,-8 -1,-2 -1,-4 -1,-6 -1,-2 -1,-4 -1,-6 -1,-2 -1,-3 -2,-5 -1,-1 -1,-3 -2,-4 -1,-2 -2,-3 -2,-5 -1,-1 -2,-3 -4,-4 -1,-1 -2,-3 -3,-4 -1,-1 -3,-3 -4,-4 -2,-1 -3,-2 -5,-3 -1,-1 -3,-2 -5,-3 -1,-1 -3,-1 -4,-2 -2,-1 -4,-1 -5,-2 -2,0 -3,0 -5,0 -1,-1 -3,-1 -5,-1l-16 0 0 -16c0,-3 0,-6 -1,-8 0,-3 -1,-6 -3,-8 -1,-3 -2,-6 -4,-8 -2,-3 -4,-6 -6,-8 -2,-2 -5,-4 -7,-6 -3,-2 -5,-3 -8,-5 -3,-1 -5,-2 -8,-2 -2,-1 -5,-1 -8,-1l-427 0c-1,0 -3,0 -5,0 -1,0 -3,1 -4,1 -2,0 -3,1 -4,1 -2,1 -3,2 -4,2l0 0c-2,1 -3,2 -5,3 -1,1 -2,2 -4,3 -1,1 -2,3 -4,4 -1,1 -2,2 -4,4 -1,1 -1,2 -2,3 -1,1 -2,2 -3,3 0,2 -1,3 -2,4 0,2 -1,3 -1,5 -1,2 -1,4 -2,5 0,2 -1,4 -1,6 0,3 0,5 -1,7 0,2 0,5 0,7zm133 85c-2,-1 -4,-4 -5,-6 -1,-3 -2,-5 -2,-8 0,-3 1,-6 2,-8 1,-3 2,-5 4,-7l0 0c2,-2 4,-3 7,-4 2,-1 5,-2 8,-2l269 0c3,0 7,2 10,4 2,2 4,6 6,9 0,2 0,3 1,4 0,1 0,3 0,4 0,1 0,3 0,4 -1,1 -1,3 -2,4 -1,4 -3,7 -7,9 -3,2 -7,3 -12,3l-264 0c-3,0 -5,0 -8,-1 -2,-1 -5,-3 -7,-5zm-1 447c-2,-2 -3,-4 -4,-7 -1,-2 -2,-4 -2,-7 0,-2 1,-5 2,-7 1,-2 2,-5 4,-7 1,-2 4,-3 6,-4 2,-2 4,-2 7,-2l267 0c5,0 9,1 12,3 3,2 6,5 7,9 1,1 1,3 2,4 0,1 0,3 0,4 0,2 0,3 0,4 -1,2 -1,3 -2,4 -1,4 -4,7 -7,9 -3,2 -7,4 -12,4l-267 0c-3,0 -5,-1 -7,-2 -2,-1 -5,-3 -6,-5zm273 -290l-252 0c-6,0 -11,-2 -15,-4 -4,-2 -7,-5 -9,-9l0 0c-1,-1 -2,-3 -2,-4 0,-2 0,-3 0,-5 0,-2 0,-3 0,-4 0,-2 1,-3 1,-5 0,0 1,0 1,0 1,-4 4,-7 7,-9 4,-2 8,-3 12,-3l264 0c5,0 9,1 12,3 3,2 6,6 7,9 1,2 2,3 2,4l0 0c0,2 0,3 0,5 0,2 0,3 0,5 -1,1 -1,3 -2,4 -2,4 -6,7 -11,10 -4,1 -9,3 -15,3zm6 148l-263 0c-4,0 -8,-1 -12,-3 -3,-3 -6,-6 -8,-10l0 0c0,-1 -1,-2 -1,-4 0,-1 -1,-3 -1,-4l0 0 0 0c0,-2 1,-3 1,-5 0,-1 1,-3 1,-4 2,-4 5,-7 10,-10 3,-1 8,-3 13,-3l257 0c5,0 10,2 14,4 4,2 7,5 9,9 1,1 1,3 2,4 0,2 0,3 0,5 0,1 0,3 0,4 -1,2 -1,3 -2,5 -2,3 -4,7 -8,9 -3,2 -7,3 -12,3zm-443 -334l0 -56c0,-3 0,-6 0,-9 0,-3 0,-6 1,-9 0,-3 1,-6 1,-9 1,-3 2,-5 3,-8 0,-3 1,-5 3,-8 1,-2 2,-5 3,-7 2,-3 3,-5 5,-7l0 0c1,-2 3,-4 5,-6 2,-2 3,-4 5,-5l0 0c2,-2 4,-4 6,-5l0 0c2,-2 4,-3 6,-5 2,-1 5,-3 7,-4 2,-1 5,-3 7,-4 3,-1 5,-2 8,-3 3,0 6,-1 9,-1 3,-1 6,-1 9,-1l427 0c5,0 10,1 15,2 5,1 9,2 14,4 5,3 9,5 13,8 5,3 9,7 12,10 3,4 6,7 9,11 2,3 5,7 7,11 1,3 3,7 4,10 1,3 2,6 2,8l2 1c2,0 3,0 5,1 2,1 4,1 6,2l0 0c2,1 4,2 6,3 3,1 5,3 8,4 3,2 5,4 7,6 3,2 5,4 7,6l0 0c2,2 4,4 6,7 2,2 3,4 5,7 2,2 3,4 4,7 1,2 3,5 4,8 1,2 1,5 2,8 1,2 1,5 2,8l0 0c0,3 1,6 1,9 0,3 1,6 1,9 0,4 0,7 0,10l0 579c0,1 0,3 0,5l0 0c0,2 0,4 0,5 -1,2 -1,4 -1,5 0,2 0,4 0,5 0,2 -1,3 -1,5 0,2 0,3 -1,4 0,2 0,3 -1,5 0,1 0,2 -1,3 -1,4 -3,8 -5,12 -2,4 -4,7 -6,11 -3,3 -6,7 -9,10 -2,3 -6,6 -9,8 -3,3 -7,5 -10,7 -4,2 -8,4 -11,5 -4,2 -8,3 -12,3 -4,1 -8,2 -12,2l-427 0c-5,0 -10,-1 -14,-2 -5,-1 -10,-3 -15,-5 -4,-2 -9,-5 -13,-8 -4,-3 -8,-6 -12,-10 -3,-3 -6,-7 -9,-10 -2,-4 -4,-7 -6,-11 -2,-4 -3,-7 -5,-11l0 0c0,-2 -1,-5 -2,-7 -3,-1 -6,-2 -9,-3 -4,-1 -8,-3 -12,-5 -4,-2 -8,-5 -12,-8 -4,-3 -7,-6 -10,-10 -4,-4 -7,-9 -10,-14 -3,-5 -5,-10 -7,-16 -2,-5 -3,-11 -4,-17 -1,-5 -1,-11 -1,-17l0 -58 -20 0 -2 0c-3,0 -6,0 -9,-1 -3,-1 -6,-2 -8,-3 -3,-2 -6,-3 -8,-5 -3,-2 -5,-4 -7,-7 -2,-2 -4,-4 -5,-7 -2,-3 -3,-5 -5,-8 -1,-3 -2,-6 -2,-9 -1,-3 -1,-6 -1,-9l0 0 0 -1 0 0 0 -1c1,-24 12,-37 26,-43 12,-6 27,-6 41,-6l0 -23 -12 0c-6,0 -12,-1 -16,-2 -6,-1 -11,-3 -15,-6 -4,-2 -8,-6 -11,-9 -4,-4 -6,-9 -8,-13 -1,-2 -2,-4 -2,-5 -1,-2 -1,-4 -2,-5l0 0c0,-2 0,-4 0,-6 -1,-1 -1,-3 -1,-5 0,-2 0,-3 1,-5 0,-2 0,-4 0,-5 1,-2 1,-3 2,-5 0,-2 1,-3 1,-5 2,-5 5,-9 8,-13 3,-4 6,-7 10,-10 4,-2 9,-4 13,-6 5,-1 10,-2 15,-2l17 0 0 -23 -14 0c-5,0 -11,-1 -15,-2 -6,-2 -10,-4 -14,-6 -5,-3 -8,-6 -12,-10 -3,-4 -6,-8 -8,-13 0,-1 -1,-3 -1,-4 -1,-2 -1,-4 -2,-6 0,-1 0,-3 0,-5 -1,-2 -1,-3 -1,-5 0,-2 0,-3 1,-5l0 0c0,-2 0,-4 0,-6 1,-1 1,-3 2,-5 0,-1 1,-3 1,-5 2,-4 5,-8 8,-12 4,-4 7,-7 12,-10 4,-3 8,-5 14,-6 4,-1 10,-2 15,-2l14 0 0 -23 -15 0 -1 0c0,0 -2,-1 -3,-1 -3,0 -6,0 -9,-1 -3,-1 -6,-2 -9,-3 -3,-1 -6,-3 -9,-5 -2,-2 -5,-4 -7,-6 -2,-2 -4,-5 -6,-7 -2,-3 -3,-6 -4,-9 -2,-3 -2,-6 -3,-9 -1,-3 -1,-6 -1,-9 0,-1 0,-3 0,-3 1,-12 4,-22 9,-29 5,-7 12,-12 20,-15l0 0c7,-2 14,-4 21,-4 6,-1 11,-1 17,-1z"/>
 </g>
</svg>
