<?xml version="1.0" encoding="UTF-8"?>
<!DOCTYPE svg PUBLIC "-//W3C//DTD SVG 1.0//EN" "http://www.w3.org/TR/2001/REC-SVG-20010904/DTD/svg10.dtd">
<!-- Creator: CorelDRAW X7 -->
<svg xmlns="http://www.w3.org/2000/svg" xml:space="preserve" width="73.1416mm" height="86.2116mm" version="1.0" style="shape-rendering:geometricPrecision; text-rendering:geometricPrecision; image-rendering:optimizeQuality; fill-rule:evenodd; clip-rule:evenodd"
viewBox="0 0 2747 3237"
 xmlns:xlink="http://www.w3.org/1999/xlink">
 <defs>
  <style type="text/css">
   <![CDATA[
    .fil0 {fill:#FEFEFE}
   ]]>
  </style>
 </defs>
 <g id="Layer_x0020_1">
  <metadata id="CorelCorpID_0Corel-Layer"/>
  <path class="fil0" d="M2298 2695l-783 0 0 401 1161 0c38,0 71,33 71,71 0,37 -29,70 -71,70l-1232 0 -1279 0c-38,0 -71,-33 -71,-70 0,-38 33,-71 71,-71l1208 0 0 -401 -778 0c-19,0 -43,-10 -52,-24 -14,-14 -19,-38 -14,-57l188 -1264c5,-33 33,-62 71,-62l1704 0c19,0 42,10 52,24 14,14 19,38 14,57l-189 1264c-9,33 -38,62 -71,62zm-1755 -1605c-19,0 -38,-14 -38,-38 0,-23 14,-37 38,-37 264,0 476,-213 476,-477 0,-212 -141,-396 -344,-458 -19,-4 -28,-23 -24,-42 5,-19 24,-29 43,-24 231,66 391,283 391,524 5,307 -240,552 -542,552zm-142 -19c-5,0 -5,0 -9,0 -232,-66 -392,-283 -392,-524 0,-108 33,-212 90,-302 9,-14 33,-18 47,-9 14,9 19,33 9,47 -52,76 -80,170 -80,264 0,213 142,397 345,458 18,5 28,24 23,43 -5,14 -19,23 -33,23zm-141 -915c-10,0 -24,-5 -29,-14 -9,-15 -4,-38 10,-48 89,-61 198,-94 306,-94 19,0 38,14 38,38 0,23 -19,28 -42,28 -95,0 -189,28 -265,80 -4,5 -14,10 -18,10zm287 807c-231,0 -415,-189 -415,-416 0,-226 189,-415 415,-415 227,0 416,189 416,415 0,227 -184,416 -416,416zm0 -689c-151,0 -273,122 -273,273 0,151 122,274 273,274 151,0 274,-123 274,-274 0,-151 -123,-273 -274,-273zm1735 1972l-317 0 -47 307 319 0 45 -307zm-390 0l-356 0 -48 307 357 0 47 -307zm-429 0l-357 0 -47 307 356 0 48 -307zm-430 0l-312 0 -46 307 311 0 47 -307zm-300 -75l312 0 53 -345 -313 0 -52 345zm385 0l356 0 53 -345 -356 0 -53 345zm429 0l357 0 53 -345 -357 0 -53 345zm430 0l316 0 51 -345 -314 0 -53 345zm-1181 -420l313 0 50 -321 -314 0 -49 321zm386 0l357 0 49 -321 -356 0 -50 321zm430 0l356 0 50 -321 -357 0 -49 321zm429 0l314 0 47 -321 -311 0 -50 321z"/>
 </g>
</svg>
