<?xml version="1.0" encoding="UTF-8"?>
<!DOCTYPE svg PUBLIC "-//W3C//DTD SVG 1.0//EN" "http://www.w3.org/TR/2001/REC-SVG-20010904/DTD/svg10.dtd">
<!-- Creator: CorelDRAW X7 -->
<svg xmlns="http://www.w3.org/2000/svg" xml:space="preserve" width="54.2837mm" height="62.2863mm" version="1.0" style="shape-rendering:geometricPrecision; text-rendering:geometricPrecision; image-rendering:optimizeQuality; fill-rule:evenodd; clip-rule:evenodd"
viewBox="0 0 454 521"
 xmlns:xlink="http://www.w3.org/1999/xlink">
 <defs>
  <style type="text/css">
   <![CDATA[
    .fil0 {fill:#FEFEFE;fill-rule:nonzero}
   ]]>
  </style>
 </defs>
 <g id="Layer_x0020_1">
  <metadata id="CorelCorpID_0Corel-Layer"/>
  <path class="fil0" d="M36 54l0 -1c0,0 0,1 0,1zm0 -1l0 -1 -1 0c1,0 1,0 1,1zm158 361c10,2 21,3 34,3 11,0 23,-1 33,-3 12,-3 23,-7 31,-11 16,-7 29,-16 41,-27 11,-10 21,-23 30,-37 3,-6 6,-12 9,-19 3,-8 6,-16 7,-23l1 -1c1,-5 3,-12 3,-17 0,-4 -1,-7 -5,-7l-302 0c-1,0 -2,1 -3,2 -1,0 -2,1 -2,2 0,4 1,9 2,14 1,6 3,13 5,17 4,13 9,25 16,36 7,11 15,21 24,30 5,4 8,7 11,10 4,3 8,6 12,9 4,2 8,5 12,7 4,2 8,4 12,6 10,4 19,7 29,9zm33 -373c31,0 60,6 86,17 28,11 52,28 73,49 4,4 8,8 12,13 2,2 4,5 6,7l0 -46c0,-9 0,-12 0,-14l0 -11c0,-1 0,-2 0,-2l0 0c0,-1 0,-1 0,-3 0,-5 0,-10 0,-14 -1,-3 -2,-6 -4,-9l0 -1c-1,-1 -3,-3 -4,-4 -2,-1 -3,-3 -5,-4l0 0c-2,-1 -3,-1 -5,-2 -1,0 -3,-1 -4,-1l-309 0c-1,0 -3,1 -4,1 -2,0 -4,1 -5,2 -2,1 -3,2 -5,3 -1,2 -3,3 -4,5 -3,3 -4,6 -4,10 -1,4 -1,8 -1,14 0,1 0,1 0,1l0 0 0 0 0 0c0,1 0,2 0,3 0,9 0,16 0,24l0 0c0,16 0,34 0,48 2,-3 4,-5 6,-7 4,-5 8,-9 12,-13 21,-21 46,-38 73,-49 27,-11 56,-17 86,-17zm206 315c-2,4 -4,8 -6,12 -2,4 -4,8 -6,12l0 0 0 0c-1,11 -1,40 -1,62l1 15 0 10c0,2 0,3 0,4l0 0 0 0c0,7 0,12 -1,17 -1,5 -3,10 -7,16 -2,2 -4,4 -7,7 -2,2 -4,4 -7,5 -3,2 -6,3 -9,4 -2,1 -5,1 -8,1l-310 0c-1,0 -3,0 -4,0 -2,-1 -4,-1 -5,-2 -2,0 -4,-1 -5,-2 -2,0 -4,-1 -5,-2 -19,-12 -19,-28 -19,-46l0 0 0 -3c0,-10 0,-18 0,-25l0 0 0 -1c-1,-2 -1,-5 0,-7 0,-15 0,-30 0,-45 0,-2 0,-4 0,-5l0 0 0 0c0,-2 0,-2 0,-3 -1,-1 -2,-3 -3,-4 -1,-2 -1,-3 -2,-4 -1,-2 -2,-4 -3,-6 -1,-2 -2,-4 -3,-6l0 0c-1,-1 -1,-3 -2,-4 -4,-9 -7,-16 -10,-24 -3,-9 -5,-17 -6,-25 -2,-8 -3,-16 -4,-25 -1,-9 -1,-18 -1,-27 0,-9 1,-17 2,-25 1,-8 2,-16 4,-23 2,-7 4,-14 7,-21 2,-7 5,-14 8,-21l1 -2c1,-1 1,-2 1,-3 1,-1 1,-2 2,-3 1,-1 1,-2 2,-3l1 -2c1,-3 3,-5 4,-8 0,0 1,-1 1,-2l0 0c1,0 1,0 1,-1 0,-11 0,-40 0,-62l0 0 0 0 0 -1c0,-11 0,-21 0,-23 0,-1 0,-2 0,-3l0 0 0 -1 0 0 0 0c0,-15 -1,-24 8,-34 2,-3 4,-5 7,-7 2,-2 5,-4 7,-6 3,-1 6,-2 9,-3 2,-1 5,-1 8,-1l309 0c3,0 6,0 8,1 3,1 6,3 9,4 23,13 22,23 22,46l0 5c0,9 0,17 0,25l0 0 0 0c0,3 0,6 0,9 0,15 0,29 0,43 0,2 0,4 0,5l0 0c-1,4 -1,4 2,7 1,3 3,6 5,9 2,4 3,8 5,11 2,4 4,8 5,12 2,3 3,7 4,10 5,13 8,27 10,41 2,14 3,28 2,42 0,14 -2,27 -5,41 -3,13 -7,26 -13,39l0 0c0,1 -1,2 -1,3 -1,1 -1,2 -2,3zm-29 49c-2,2 -4,4 -6,6 -4,5 -8,9 -12,14 -21,20 -45,37 -73,48 -26,11 -55,17 -86,17 -30,0 -59,-6 -86,-17 -27,-11 -52,-28 -73,-48 -4,-5 -8,-9 -12,-14 -2,-2 -4,-5 -6,-7 0,12 0,23 0,35l0 1c0,10 0,12 0,14l0 15 0 0c0,6 0,13 1,18 2,6 5,10 11,14 0,1 1,1 3,2 1,0 2,0 3,1 1,0 2,0 3,1 0,0 1,0 1,0l310 0c1,0 3,0 4,-1l0 0c2,0 3,-1 5,-2 1,-1 3,-2 4,-4 2,-1 3,-2 4,-4 3,-3 4,-6 5,-10 0,-3 0,-7 0,-13l0 -4c0,-9 0,-16 0,-24l0 0c0,-8 0,-16 0,-25 0,-4 0,-9 0,-13zm-30 -287c-19,-19 -42,-35 -67,-45 -25,-10 -52,-16 -80,-16 -28,0 -55,6 -80,16 -25,10 -48,26 -67,45 -19,19 -35,42 -45,68 -11,24 -16,51 -16,80 0,17 2,34 6,51 4,16 11,32 19,47l0 2 1 1c1,2 2,3 3,4 0,1 1,2 1,3 4,7 9,14 14,20 5,7 11,13 17,19 19,19 42,35 67,45 25,10 52,16 80,16 28,0 55,-6 80,-16 25,-10 48,-26 67,-45 7,-6 12,-13 18,-20 5,-7 10,-14 14,-21 3,-5 6,-12 9,-18l1 -1 0 0 2 -3c6,-14 10,-27 13,-41 3,-14 5,-29 5,-43 0,-29 -6,-56 -16,-80 -11,-26 -26,-49 -46,-68zm-33 45l-26 0 0 27 26 0 0 -27zm-132 193c-15,0 -18,0 -18,-14 0,-2 6,-11 9,-16 1,-1 2,-2 2,-3l23 -34 0 0c2,-3 5,-5 8,-6 2,-1 4,-1 6,0l0 0c2,1 4,2 5,4 2,2 3,5 3,8 0,5 -7,14 -14,23 -3,6 -7,11 -9,15 2,-1 5,-1 7,-1 4,0 8,0 11,0 13,0 22,2 22,13 0,5 -22,36 -31,50l-4 6c-2,3 -5,4 -7,5 -2,1 -5,1 -7,0 -2,0 -4,-2 -5,-3 -2,-2 -3,-4 -3,-7 0,-6 10,-21 18,-32 2,-3 4,-6 6,-8l-3 0c-6,0 -12,0 -18,0l-1 0zm82 -193l-27 0 0 27 27 0 0 -27zm-50 0l-28 0 0 27 28 0 0 -27zm-50 0l-28 0 0 27 28 0 0 -27zm-52 0l-26 0 0 27 26 0 0 -27zm-50 7c0,-3 0,-7 0,-10 0,-6 2,-11 6,-15 5,-4 10,-6 17,-6l230 0c7,0 13,2 17,6 4,4 6,9 6,15 0,3 0,7 0,10 0,4 1,8 1,11 0,17 -3,32 -21,32l-236 0c-18,0 -20,-15 -20,-32 0,-3 0,-7 0,-11zm-10 79l296 0c8,0 15,2 20,6 6,4 9,10 11,18 0,4 0,10 -1,17 -2,9 -5,20 -6,25 -5,13 -10,24 -15,34 -6,11 -13,20 -21,30 -8,9 -17,17 -26,25 -32,24 -72,37 -112,36 -41,0 -81,-14 -113,-41 -10,-8 -19,-18 -27,-28l0 0 -15 -22 0 -1c-1,-1 -1,-2 -2,-3 -1,-1 -1,-3 -3,-5 -1,-4 -2,-6 -3,-8 -2,-5 -3,-7 -7,-18 -4,-12 -8,-27 -6,-40 2,-14 10,-25 30,-25z"/>
 </g>
</svg>
