<?xml version="1.0" encoding="UTF-8"?>
<!DOCTYPE svg PUBLIC "-//W3C//DTD SVG 1.0//EN" "http://www.w3.org/TR/2001/REC-SVG-20010904/DTD/svg10.dtd">
<!-- Creator: CorelDRAW X7 -->
<svg xmlns="http://www.w3.org/2000/svg" xml:space="preserve" width="41.6538mm" height="62.195mm" version="1.0" style="shape-rendering:geometricPrecision; text-rendering:geometricPrecision; image-rendering:optimizeQuality; fill-rule:evenodd; clip-rule:evenodd"
viewBox="0 0 323 483"
 xmlns:xlink="http://www.w3.org/1999/xlink">
 <defs>
  <style type="text/css">
   <![CDATA[
    .fil0 {fill:#FEFEFE}
   ]]>
  </style>
 </defs>
 <g id="Layer_x0020_1">
  <metadata id="CorelCorpID_0Corel-Layer"/>
  <g>
   <path class="fil0" d="M264 37c-37,-31 -86,-43 -135,-34 -65,13 -117,68 -127,134 -8,54 11,108 51,144 18,17 29,40 31,67 0,0 0,1 0,1l0 83c0,5 4,8 8,8l9 0c3,25 21,43 42,43l37 0c22,0 39,-18 43,-43l8 0c5,0 8,-3 8,-8l0 -84c0,0 0,0 0,0 0,-25 12,-49 32,-67 33,-31 52,-74 52,-119 0,-49 -21,-94 -59,-125zm-132 157l-12 0c-7,0 -13,-6 -13,-13 0,-7 6,-13 13,-13 7,0 12,6 12,13l0 13zm59 -13c0,-7 6,-13 13,-13 7,0 12,6 12,13 0,7 -5,13 -12,13l-13 0 0 -13zm-5 175l37 0 0 68 -8 0c0,0 0,0 0,0 0,0 0,0 0,0l-107 0c0,0 0,0 0,0 0,0 0,0 0,0l-7 0 0 -68 79 0 6 0zm-37 -17l0 -129 25 0 1 129 -26 0zm31 127l-37 0c-12,0 -23,-11 -26,-26l89 0c-3,15 -13,26 -26,26zm80 -197c-22,19 -34,44 -37,70l-32 0 0 -129 13 0c16,0 29,-13 29,-29 0,-16 -13,-29 -29,-29 -16,0 -30,13 -30,29l0 13 -25 0 0 -13c0,-16 -13,-29 -29,-29 -16,0 -30,13 -30,29 0,16 14,29 30,29l12 0 0 129 -33 0c-3,-28 -15,-52 -35,-70 -36,-32 -53,-81 -46,-129 9,-60 56,-109 114,-121 44,-8 88,3 122,31 34,27 53,68 53,112 0,40 -17,79 -47,107z"/>
  </g>
 </g>
</svg>
