<?xml version="1.0" encoding="UTF-8"?>
<!DOCTYPE svg PUBLIC "-//W3C//DTD SVG 1.0//EN" "http://www.w3.org/TR/2001/REC-SVG-20010904/DTD/svg10.dtd">
<!-- Creator: CorelDRAW X7 -->
<svg xmlns="http://www.w3.org/2000/svg" xml:space="preserve" width="67.353mm" height="52.6246mm" version="1.0" style="shape-rendering:geometricPrecision; text-rendering:geometricPrecision; image-rendering:optimizeQuality; fill-rule:evenodd; clip-rule:evenodd"
viewBox="0 0 11533 9011"
 xmlns:xlink="http://www.w3.org/1999/xlink">
 <defs>
  <style type="text/css">
   <![CDATA[
    .fil0 {fill:#FEFEFE;fill-rule:nonzero}
   ]]>
  </style>
 </defs>
 <g id="Layer_x0020_1">
  <metadata id="CorelCorpID_0Corel-Layer"/>
  <path class="fil0" d="M10653 5990c52,0 101,-10 146,-29 46,-19 88,-47 123,-83l1 0c35,-35 63,-77 82,-123 19,-45 29,-94 29,-146l0 -4729c0,-52 -10,-101 -29,-146 -19,-46 -47,-88 -82,-123l-1 0c-35,-35 -77,-64 -123,-83 -45,-18 -94,-29 -146,-29l-9773 0c-52,0 -101,11 -146,29 -46,19 -88,48 -123,83l0 0c-35,35 -64,77 -83,123 -18,45 -29,94 -29,146l0 4729c0,52 11,101 29,146 19,46 48,88 83,123 35,36 77,64 123,83 45,19 94,29 146,29l9773 0zm-3245 -4795c0,-68 28,-131 74,-176l0 0c45,-45 107,-73 176,-73 69,0 131,28 177,73 45,45 73,108 73,176l0 1800 2430 0c69,0 131,28 176,73 46,45 74,108 74,177 0,69 -28,131 -74,176 -45,45 -107,73 -176,73l-2430 0 0 1800c0,69 -28,131 -73,176 -46,45 -108,73 -177,73 -69,0 -131,-28 -176,-73 -46,-45 -74,-107 -74,-176l0 -1800 -3283 0 0 1800c0,69 -28,131 -73,176 -45,46 -108,73 -177,73 -69,0 -131,-27 -176,-73 -46,-45 -74,-108 -74,-176l0 -1800 -2430 0c-68,0 -131,-28 -176,-73 -45,-45 -73,-107 -73,-176 0,-69 28,-132 73,-177 45,-45 108,-73 176,-73l2430 0 0 -1800c0,-68 28,-131 74,-176 45,-45 107,-73 176,-73 69,0 131,28 177,73 45,45 73,108 73,176l0 1800 3283 0 0 -1800zm316 7028l-5110 0c-119,0 -232,-24 -336,-67 -108,-44 -205,-110 -286,-191 -81,-81 -147,-178 -191,-286 -43,-104 -67,-217 -67,-336l0 -854 -854 0c-119,0 -232,-24 -336,-67 -108,-44 -205,-110 -286,-191l0 0c-81,-81 -147,-178 -191,-286 -43,-104 -67,-217 -67,-336l0 -4729c0,-119 24,-232 67,-336 45,-108 110,-205 191,-286l0 0c81,-81 178,-147 286,-191 104,-43 217,-67 336,-67l9773 0c119,0 233,24 336,67 109,45 206,110 286,191 81,81 147,178 192,286 43,104 66,217 66,336l0 4729c0,119 -23,232 -66,336 -45,108 -111,205 -192,286 -81,81 -178,147 -285,191l-1 0c-103,43 -217,67 -336,67l-8420 0 0 854c0,52 11,101 29,146 19,46 48,88 83,123 35,36 77,64 123,83 45,18 94,29 146,29l5110 0 0 -66c0,-97 19,-191 55,-276 36,-88 90,-168 156,-234l1 -1c66,-66 146,-120 234,-157 86,-35 179,-54 276,-54l158 0c97,0 191,19 276,54 89,37 169,91 235,157 19,19 37,40 56,64 10,13 20,26 30,40l349 0c68,0 131,28 176,73l0 0c45,45 73,108 73,177 0,68 -28,131 -73,176 -45,45 -107,73 -176,73l-223 0 0 447 223 0c68,0 131,28 176,73l0 0c45,45 73,107 73,176 0,69 -28,132 -73,177 -45,45 -107,73 -176,73l-349 0c-10,14 -20,27 -30,40 -18,23 -37,44 -56,63l0 1c-67,66 -146,120 -235,156 -85,36 -179,55 -276,55l-158 0c-97,0 -190,-19 -276,-55 -88,-36 -168,-90 -234,-156 -67,-67 -121,-147 -157,-235 -36,-85 -55,-179 -55,-276l0 -66zm1092 -636l-2 -6c-6,-16 -13,-30 -22,-43 -8,-14 -18,-26 -30,-38 -21,-20 -45,-37 -72,-48 -27,-11 -55,-17 -86,-17l-158 0c-30,0 -59,6 -85,17 -27,11 -52,28 -73,48 -20,21 -37,45 -48,73 -11,26 -17,55 -17,85l0 631c0,30 6,59 17,85 11,27 28,52 48,73 21,20 46,37 73,48 26,11 55,17 85,17l158 0c31,0 59,-6 86,-17 26,-11 51,-28 72,-48 12,-12 22,-25 30,-38 9,-13 16,-28 22,-43l2 -6c3,-11 6,-23 8,-35 2,-11 3,-23 3,-36l0 -631c0,-13 -1,-25 -3,-37 -2,-11 -5,-23 -8,-34z"/>
 </g>
</svg>
