<?xml version="1.0" encoding="UTF-8"?>
<!DOCTYPE svg PUBLIC "-//W3C//DTD SVG 1.0//EN" "http://www.w3.org/TR/2001/REC-SVG-20010904/DTD/svg10.dtd">
<!-- Creator: CorelDRAW X7 -->
<svg xmlns="http://www.w3.org/2000/svg" xml:space="preserve" width="55.5625mm" height="55.5625mm" version="1.0" style="shape-rendering:geometricPrecision; text-rendering:geometricPrecision; image-rendering:optimizeQuality; fill-rule:evenodd; clip-rule:evenodd"
viewBox="0 0 1369 1369"
 xmlns:xlink="http://www.w3.org/1999/xlink">
 <defs>
  <style type="text/css">
   <![CDATA[
    .fil0 {fill:#FEFEFE;fill-rule:nonzero}
   ]]>
  </style>
 </defs>
 <g id="Layer_x0020_1">
  <metadata id="CorelCorpID_0Corel-Layer"/>
  <path class="fil0" d="M438 674c14,28 30,55 48,80 18,25 38,49 60,71 22,22 46,42 71,60 24,17 49,32 76,45l4 2c1,0 2,1 3,1 0,0 1,0 2,1 0,0 1,0 2,0l0 0c1,0 1,0 3,0 1,0 2,0 3,0 1,0 2,-1 3,-1 1,0 2,0 2,-1 1,0 2,-1 3,-2l0 0c1,0 2,0 2,-1 58,-39 117,-80 176,-117 4,-3 8,-5 12,-7l0 0c3,-1 7,-3 11,-4 5,-2 9,-3 14,-3 4,-1 9,-1 13,-1 3,0 6,0 9,0 4,1 7,1 10,2 3,0 6,1 9,2l0 0 0 0c113,48 229,95 341,146l0 0c8,3 15,8 22,14 6,5 12,12 17,19 5,7 9,15 11,24 3,9 4,18 4,27l0 5c0,2 0,4 -1,6 -5,46 -20,89 -40,128 -22,40 -50,76 -84,106 -33,29 -72,53 -115,69 -39,15 -80,23 -123,24l0 0 -9 0c-135,0 -264,-27 -381,-75 -122,-51 -232,-125 -324,-217 -180,-180 -292,-429 -292,-705l0 -8 0 0c1,-44 10,-85 24,-124 16,-42 40,-81 70,-115 29,-34 65,-62 105,-84 37,-19 77,-33 120,-39l0 0 9 -1 2 -1c3,0 6,0 9,0 9,0 18,1 26,4 9,3 17,7 24,11 8,5 15,11 20,18 6,7 11,15 14,23 46,107 103,226 143,333 1,3 2,6 3,8 0,3 1,6 2,8 0,3 1,7 1,10 0,3 1,6 1,9 0,4 -1,8 -1,13 -1,4 -2,8 -3,13 -1,4 -3,8 -5,12 -1,4 -4,8 -6,11l-115 175 -3 5c-1,1 -1,2 -2,3l0 0c0,1 0,2 -1,3 0,1 0,2 0,2 0,1 0,2 0,4 0,1 0,2 0,2 0,1 0,2 0,2 0,1 0,2 1,3l0 1 0 1zm432 -550c-9,-3 -17,-9 -21,-17 -4,-7 -6,-16 -4,-25l0 -1c3,-10 9,-17 17,-22 7,-4 16,-6 25,-4l2 0c51,14 100,35 145,61 45,26 87,58 124,95 37,37 69,79 96,125 26,45 46,93 60,145 2,9 1,19 -4,27 -4,7 -12,14 -21,16 -10,3 -19,1 -27,-4 -8,-4 -14,-12 -17,-21 -12,-45 -30,-88 -53,-128 -23,-40 -51,-77 -84,-110 -33,-32 -70,-61 -110,-84 -39,-23 -82,-41 -128,-53zm-58 218l0 0c-10,-2 -17,-8 -22,-16l0 0c-4,-8 -6,-17 -3,-27l0 0c2,-9 8,-17 16,-21 8,-5 17,-7 27,-4 32,8 62,21 91,37 28,17 54,37 77,60 23,23 44,49 60,78 16,28 29,58 37,90 3,10 1,19 -3,27 -5,8 -12,14 -22,17 -9,2 -19,1 -27,-4l0 0c-7,-4 -14,-12 -16,-22 -7,-26 -17,-50 -30,-73 -14,-23 -30,-44 -49,-63 -19,-19 -40,-35 -63,-48 -23,-13 -47,-24 -73,-31zm-316 533c-25,-25 -47,-52 -68,-80 -20,-29 -38,-59 -53,-90l-4 -9 0 0 0 -1c-1,-3 -2,-7 -3,-10 -1,-4 -1,-7 -2,-10 0,-4 0,-7 0,-10 0,-5 0,-9 1,-13 0,-5 1,-9 2,-13 2,-5 3,-9 5,-13 2,-4 4,-8 6,-11l5 -7c16,-25 32,-49 48,-72 22,-33 45,-67 65,-100l0 -1c1,0 1,-1 2,-2l0 0c0,-1 1,-2 1,-3 0,-1 0,-2 0,-3 1,-1 1,-2 1,-3 0,-1 0,-2 0,-2 -1,-1 -1,-2 -1,-2l0 -2 -1 -2c-49,-107 -91,-229 -142,-333 -1,-1 -2,-3 -3,-5 -2,-1 -3,-3 -5,-4l0 0c-2,-1 -3,-2 -5,-2 -2,-1 -4,-1 -6,-1l0 0c-3,0 -5,0 -7,1 -36,5 -69,16 -100,32 -32,17 -61,40 -85,68 -24,27 -44,59 -57,93 -11,31 -18,64 -19,99l0 8c0,126 25,245 70,354 47,114 116,216 201,301 86,86 188,154 301,201 109,45 228,70 354,70l9 0c34,-1 67,-7 98,-19 35,-13 66,-32 94,-56 27,-25 50,-53 67,-86 17,-32 28,-66 33,-103l0 -2 0 -1 0 0c0,-3 0,-5 -1,-7 0,-1 -1,-3 -2,-5l0 0c-1,-1 -2,-3 -4,-4 -1,-1 -3,-2 -5,-3 -102,-42 -233,-111 -334,-143 0,-1 -1,-1 -2,-1 0,0 -1,0 -1,0 -1,0 -2,0 -3,0 -1,0 -2,0 -3,0 -1,0 -2,0 -3,0 -1,1 -2,1 -2,1 -1,1 -2,1 -3,2 -57,40 -117,78 -175,117 -1,0 -1,1 -2,1 -4,3 -8,5 -12,7 -4,2 -8,4 -13,5 -4,1 -9,2 -13,3 -5,1 -9,1 -13,1 -4,0 -7,0 -10,-1 -4,0 -7,-1 -11,-1 -3,-1 -6,-2 -9,-3 -4,-1 -7,-2 -10,-4l-8 -4 1 0c-30,-14 -57,-31 -84,-49 -28,-21 -55,-43 -80,-68z"/>
 </g>
</svg>
