<?xml version="1.0" encoding="UTF-8"?>
<!DOCTYPE svg PUBLIC "-//W3C//DTD SVG 1.0//EN" "http://www.w3.org/TR/2001/REC-SVG-20010904/DTD/svg10.dtd">
<!-- Creator: CorelDRAW X7 -->
<svg xmlns="http://www.w3.org/2000/svg" xml:space="preserve" width="57.8961mm" height="57.9111mm" version="1.0" style="shape-rendering:geometricPrecision; text-rendering:geometricPrecision; image-rendering:optimizeQuality; fill-rule:evenodd; clip-rule:evenodd"
viewBox="0 0 31646 31654"
 xmlns:xlink="http://www.w3.org/1999/xlink">
 <defs>
  <style type="text/css">
   <![CDATA[
    .fil0 {fill:#FEFEFE}
    .fil1 {fill:#FEFEFE;fill-rule:nonzero}
   ]]>
  </style>
 </defs>
 <g id="Layer_x0020_1">
  <metadata id="CorelCorpID_0Corel-Layer"/>
  <g id="_466699896">
   <path class="fil0" d="M24974 3744c0,-789 -81,-1518 408,-2111 562,-682 2108,-837 2610,352 125,295 99,559 352,728 217,145 649,11 1008,11 831,0 1193,1499 600,1499l-4558 0c-287,0 -420,-202 -420,-479zm-4488 16876l4738 0 0 7376 -4738 0 0 -7376zm-5817 6297c-826,0 -605,-1020 -60,-1020 688,0 712,1020 60,1020zm4738 -6477l0 3298c-2131,0 -2159,230 -2159,2159l-1139 0c-58,-694 -1465,-1622 -2535,-675 -557,493 -672,1369 -387,1917 155,295 392,534 681,699 183,104 311,139 558,165 740,81 1526,-353 1683,-1026 476,0 1119,70 1495,-64 913,-326 723,-1050 723,-2035l1080 0 0 3298c0,461 516,900 1020,900l4917 0c426,0 960,-470 960,-1080l0 -7376c0,-564 -455,-1080 -1020,-1080l-4977 0c-423,0 -900,478 -900,900zm11924 -16819l0 316c-61,761 -575,1426 -1679,1426l-4018 0c-1953,0 -1740,-1600 -1740,-2699 0,-1392 1203,-2639 2579,-2639l360 0c920,0 1999,874 2159,1560 772,0 1217,215 1635,584 412,365 662,913 704,1452z"/>
   <path class="fil1" d="M6181 1948c0,76 -3,78 -6,236 -7,336 -59,778 -38,784l573 152 0 592c0,236 3,355 6,500 22,995 60,2737 -209,3263l-192 381c-216,430 -140,277 -199,395l-3921 7841c-84,168 -148,283 -218,407 -124,222 -266,474 -353,674l1969 0 0 12939 24452 0 0 -12939 771 0c109,0 330,7 545,15 117,4 231,7 445,7 169,0 298,299 298,161 0,-1 -2263,-4430 -3487,-6825 -364,-713 -639,-1251 -742,-1457 -104,-207 -167,-344 -230,-481 -305,-662 -620,-1346 -1181,-1346l-15121 0 0 -3359c0,-407 180,-588 401,-812 56,-56 128,-129 128,-187l0 -4c0,-1023 0,-1298 -434,-1342l-3087 0 3 5c7,3 13,6 5,11 -56,29 -96,56 -107,70 -15,19 -30,50 -42,90 -19,61 -29,138 -29,229zm10048 10755l2998 0c0,321 91,698 118,1022 29,335 115,715 122,1018l-3238 0 0 -2040zm-4079 0l2999 0 0 2040 -3239 0c27,-320 91,-651 126,-1014 28,-292 114,-725 114,-1026zm8157 0l3178 0c81,348 192,702 293,1027 79,258 211,812 307,1013l-3538 0c0,-251 -189,-1924 -240,-2040zm-9476 2040l-3538 0c58,-123 104,-338 157,-503 61,-187 97,-331 150,-510 97,-336 209,-670 292,-1027l3179 0 -240 2040zm5398 -4738l2698 0c0,410 99,1211 180,1559l-2878 0 0 -1559zm-3779 0l2699 0 0 1559 -2879 0c65,-134 180,-1294 180,-1559zm-1259 1559l-2939 0c19,-224 134,-504 205,-754 79,-276 190,-511 215,-805l2699 0c0,477 -170,1079 -180,1559zm8816 -1559l2698 0c32,377 389,1181 420,1559l-2938 0c0,-477 -167,-1077 -180,-1559zm-13974 5337c0,433 407,540 840,540l17632 0c1370,0 723,-1037 372,-2292l-1224 -4173c-79,-262 -230,-492 -588,-492l-14753 0c-602,0 -625,679 -832,1327l-980 3338c-100,358 -467,1393 -467,1752zm-1395 -13182l0 -212c0,-236 36,-468 101,-681 73,-237 184,-449 326,-620 121,-146 344,-327 577,-450 216,-115 466,-197 708,-197l3107 0 55 3c1903,137 1903,686 1903,2882l0 4c0,642 -286,972 -530,1221l0 1595 13579 0c1546,0 2071,1140 2579,2243 81,175 161,349 206,439 102,204 375,738 736,1445 1285,2515 3661,7165 3661,7524 0,1184 -793,1382 -1840,1382 -45,0 -123,-2 -218,-5l0 11621c0,358 -147,683 -382,919l-1 -2c-237,237 -562,383 -918,383l-24936 0c-358,0 -684,-146 -919,-381l1 -2c-236,-237 -383,-562 -383,-917l0 -11638 -581 0c-1094,0 -1469,-519 -1469,-1267 0,-574 347,-1194 633,-1703 84,-149 162,-289 188,-341l3921 -7841c199,-399 111,-226 199,-401l198 -387c92,-179 59,-1678 40,-2533l-1 -68c-570,-477 -553,-1340 -540,-2015zm1713 -617l-1 0c-16,0 -5,2 4,5l-3 -5z"/>
  </g>
 </g>
</svg>
