<?xml version="1.0" encoding="UTF-8"?>
<!DOCTYPE svg PUBLIC "-//W3C//DTD SVG 1.0//EN" "http://www.w3.org/TR/2001/REC-SVG-20010904/DTD/svg10.dtd">
<!-- Creator: CorelDRAW X7 -->
<svg xmlns="http://www.w3.org/2000/svg" xml:space="preserve" width="70.0712mm" height="59.6699mm" version="1.0" style="shape-rendering:geometricPrecision; text-rendering:geometricPrecision; image-rendering:optimizeQuality; fill-rule:evenodd; clip-rule:evenodd"
viewBox="0 0 1127 960"
 xmlns:xlink="http://www.w3.org/1999/xlink">
 <defs>
  <style type="text/css">
   <![CDATA[
    .fil0 {fill:#FEFEFE}
   ]]>
  </style>
 </defs>
 <g id="Layer_x0020_1">
  <metadata id="CorelCorpID_0Corel-Layer"/>
  <g id="_466666992">
   <path class="fil0" d="M680 729l31 0 0 196 -31 0 0 -196zm447 -57l0 12c-2,17 -12,33 -32,41 -18,7 -48,4 -71,4l-51 138c-14,36 -25,93 -95,93l-629 0c-70,0 -81,-56 -96,-94l-37 -103c-4,-11 -8,-25 -13,-34 -23,0 -53,3 -71,-4 -20,-8 -30,-24 -32,-41l0 -12c2,-14 9,-28 22,-36 15,-9 27,-9 51,-9l15 -43c18,-53 44,-117 63,-171 13,-40 30,-83 91,-83l643 0c76,0 85,65 108,126l62 171c23,0 35,0 50,9 13,8 21,22 22,36zm-513 57l31 0 0 196 -31 0 0 -196zm-66 0l31 0 0 196 -31 0 0 -196zm-66 0l31 0 0 196 -31 0 0 -196zm-66 0l31 0 0 196 -31 0 0 -196zm469 196l-139 0 0 -196 240 0 -58 163c-7,17 -21,33 -43,33zm-390 -328l137 0c18,0 40,14 42,30l-220 0c1,-16 23,-30 41,-30zm-79 30l-306 0c1,-10 71,-198 77,-213 6,-17 7,-27 21,-38 8,-6 17,-11 28,-11l656 0c32,0 42,31 48,49l52 142c4,12 9,23 13,35l12 36 -112 0c-25,2 -26,28 -8,34 13,5 159,-1 182,2 20,2 19,26 4,30l-773 1c-19,-1 -37,-2 -37,17 0,12 9,18 20,18l88 0 0 196 -139 0c-36,0 -43,-37 -52,-58 -4,-10 -6,-19 -10,-28l-39 -110c17,0 77,3 89,-2 11,-4 15,-17 7,-26 -8,-10 -22,-7 -39,-7 -10,0 -148,1 -155,-1 -13,-5 -15,-28 5,-30l476 0c24,0 308,1 316,-1 19,-5 17,-30 -2,-34 -19,-4 -101,-1 -127,-1 -8,-35 -40,-66 -84,-66l-127 0c-44,0 -76,31 -84,66z"/>
   <path class="fil0" d="M581 264c2,-57 34,-118 72,-157 20,-19 42,-35 67,-48 19,-9 63,-24 90,-24 -1,57 -33,119 -72,157 -38,38 -100,71 -157,72zm-264 -229c29,1 70,15 90,24 49,24 91,66 115,115 10,20 23,62 24,90 -57,-1 -118,-34 -157,-72 -38,-39 -70,-99 -72,-157zm247 264c140,0 262,-107 279,-245 1,-14 10,-54 -15,-54 -73,0 -146,30 -197,81 -9,10 -17,18 -26,29 -9,11 -38,56 -39,73l-5 0c0,-11 -11,-29 -16,-38 -48,-87 -144,-145 -246,-145 -36,0 -5,100 0,115 22,53 51,93 97,128 48,36 105,56 168,56z"/>
  </g>
 </g>
</svg>
