<?xml version="1.0" encoding="UTF-8"?>
<!DOCTYPE svg PUBLIC "-//W3C//DTD SVG 1.0//EN" "http://www.w3.org/TR/2001/REC-SVG-20010904/DTD/svg10.dtd">
<!-- Creator: CorelDRAW X7 -->
<svg xmlns="http://www.w3.org/2000/svg" xml:space="preserve" width="61.4796mm" height="61.3839mm" version="1.0" style="shape-rendering:geometricPrecision; text-rendering:geometricPrecision; image-rendering:optimizeQuality; fill-rule:evenodd; clip-rule:evenodd"
viewBox="0 0 2592 2588"
 xmlns:xlink="http://www.w3.org/1999/xlink">
 <defs>
  <style type="text/css">
   <![CDATA[
    .fil0 {fill:#F4982E}
   ]]>
  </style>
 </defs>
 <g id="Layer_x0020_1">
  <metadata id="CorelCorpID_0Corel-Layer"/>
  <g id="_469005664">
   <path class="fil0" d="M1695 2502l-793 0c-3,-12 -6,-15 15,-40 37,-42 77,-47 137,-47l485 0c68,0 139,16 156,87zm-485 -389l172 0 0 216 -172 0 0 -216zm-1122 -172l2415 0 0 86 -517 0 -1725 0 -173 0 0 -86zm2130 -1208c-7,19 -4,3 -3,20l46 181c0,2 1,7 1,8 2,9 6,26 9,35l87 349c1,2 2,7 3,9l14 60c2,8 2,8 5,18 0,1 2,6 2,8l98 393c4,18 7,26 13,46 -45,-12 -512,-5 -599,-5 -596,0 -1193,0 -1790,0 1,-25 12,-55 18,-79 6,-26 13,-56 20,-83 13,-51 26,-105 40,-160l191 -762c13,-56 9,-38 223,-38 541,0 1081,0 1622,0zm-583 -86l-679 0c1,-53 39,-129 69,-168 80,-99 209,-153 338,-126 49,11 46,11 87,32 42,20 86,56 114,91 11,14 22,31 32,49 15,27 39,84 39,122zm-765 0l-545 0c-10,15 -15,13 -22,32l-149 595c-9,37 -14,54 -24,94 -9,36 -13,54 -22,91 -22,84 -106,391 -106,466 0,32 -9,152 10,174 9,11 18,14 33,14l1078 0 0 216c-134,0 -236,-17 -313,135 -13,28 -68,124 11,124l949 0c70,0 35,-75 18,-109l-46 -78c-9,-12 -19,-17 -29,-25 -77,-61 -137,-47 -245,-47l0 -216 1079 0c60,0 42,-87 43,-183 0,-71 -20,-129 -37,-195l-259 -1035c-4,-17 -12,-53 -39,-53l-528 0c0,-33 -8,-58 -15,-82 -5,-18 -6,-19 -13,-35 -19,-47 -23,-54 -51,-94 -1,-1 -4,-5 -5,-6 -10,-15 -10,-15 -22,-27l-11 -10c-26,-27 -35,-39 -71,-63l-53 -29c-93,-46 -214,-57 -317,-24 -15,5 -28,9 -40,14 -44,19 -123,71 -149,105l-80 125c-16,41 -30,74 -30,126z"/>
   <path class="fil0" d="M1339 1510l388 0 11 0c0,59 21,113 21,172l-420 0 0 -172zm-485 0l399 0 0 172c-71,0 -379,-10 -421,5 0,-64 22,-116 22,-177zm970 0l410 0c0,25 12,59 18,84 6,24 19,65 20,88l-421 0c0,-9 -19,-157 -27,-172zm-1084 172c-71,0 -377,-11 -420,5 1,-35 19,-93 28,-128 2,-6 4,-21 7,-30 9,-30 19,-19 100,-19 104,0 208,0 312,0 -6,13 -27,160 -27,172zm599 -474l350 0c8,31 13,72 17,107l16 108c-99,0 -197,0 -296,0 -113,0 -87,19 -87,-64 0,-51 0,-101 0,-151zm-86 0l0 215 -378 0c-7,-19 15,-156 22,-193 5,-29 21,-23 54,-22 100,1 201,0 302,0zm528 0l362 -1c24,5 15,4 36,89 5,23 11,44 16,64 5,19 10,50 17,63l-399 0 -32 -215zm-1003 215l-393 0c0,-33 45,-181 48,-215l378 0 -33 215zm561 -517l307 0c0,22 4,31 8,52 0,2 1,3 1,5 8,48 10,101 24,158l-340 0 0 -215zm-394 0l308 0 0 215 -340 0 25 -158c3,-23 7,-35 7,-57zm793 0l340 0c4,6 0,-4 5,11 0,2 3,11 3,12l45 192 -350 0c-23,0 -22,-58 -28,-101 -3,-23 -15,-76 -15,-114zm-927 215l-351 0c1,-43 48,-171 49,-215l350 0c-8,22 -8,34 -12,58l-16 113c-3,18 0,44 -20,44zm1563 626c0,-74 -93,-412 -112,-486 -20,-78 -38,-150 -57,-229 -10,-40 -20,-79 -29,-116 -7,-27 -14,-97 -50,-97 -564,0 -1129,0 -1693,0l33 0c-26,0 -36,37 -41,62l-210 844c1,36 25,44 61,44 626,-7 1275,-1 1905,-1 36,0 72,0 108,0 13,0 40,2 52,-1 18,-3 19,-11 33,-20z"/>
   <path class="fil0" d="M1602 279l59 62c15,-10 114,-104 120,-125 -1,-1 -2,-4 -2,-3l-5 -6c-1,0 -2,-2 -2,-3 -1,0 -2,-2 -3,-2 -6,-7 -8,-9 -14,-15 -11,-11 -19,-18 -28,-31l-125 123z"/>
   <path class="fil0" d="M1253 173l86 0 0 -173 -86 0 0 173z"/>
   <path class="fil0" d="M804 220l117 113c9,7 0,1 8,7l50 -71c-1,-1 -2,-2 -2,-3l-62 -62c-6,-8 -11,-12 -17,-17 -13,-12 -19,-21 -34,-31l-60 64z"/>
  </g>
 </g>
</svg>
