<?xml version="1.0" encoding="UTF-8"?>
<!DOCTYPE svg PUBLIC "-//W3C//DTD SVG 1.0//EN" "http://www.w3.org/TR/2001/REC-SVG-20010904/DTD/svg10.dtd">
<!-- Creator: CorelDRAW X7 -->
<svg xmlns="http://www.w3.org/2000/svg" xml:space="preserve" width="62.0871mm" height="62.7116mm" version="1.0" style="shape-rendering:geometricPrecision; text-rendering:geometricPrecision; image-rendering:optimizeQuality; fill-rule:evenodd; clip-rule:evenodd"
viewBox="0 0 85408 86267"
 xmlns:xlink="http://www.w3.org/1999/xlink">
 <defs>
  <style type="text/css">
   <![CDATA[
    .fil0 {fill:#F4982E}
   ]]>
  </style>
 </defs>
 <g id="Layer_x0020_1">
  <metadata id="CorelCorpID_0Corel-Layer"/>
  <g id="_466879184">
   <g>
    <path class="fil0" d="M58952 59846c283,106 742,248 1272,212 847,-35 1624,-388 2190,-953 635,-636 953,-1484 953,-2367 -70,-5333 3320,-9996 8371,-11585 354,-106 707,-283 1025,-530 706,-530 1165,-1307 1271,-2119 142,-884 -70,-1767 -600,-2508 -3179,-4274 -3214,-10032 -35,-14306l388 -494 177 -530c282,-848 176,-1766 -212,-2472 -389,-813 -1095,-1413 -1943,-1661 -5051,-1624 -8442,-6252 -8371,-11550 0,-424 -71,-777 -177,-1130 -282,-813 -883,-1484 -1695,-1908 -777,-353 -1660,-423 -2473,-141 -1236,424 -2543,636 -3850,636 -3885,0 -7559,-1872 -9784,-5051 -247,-318 -530,-600 -777,-777 -1483,-1060 -3532,-707 -4592,777 -2260,3179 -5899,5051 -9784,5051 -1342,0 -2614,-212 -3815,-636 -1130,-388 -2578,-106 -3426,777 -636,636 -954,1484 -954,2331 71,5334 -3320,9997 -8371,11551 -388,106 -706,282 -1060,530 -1448,1095 -1730,3143 -671,4627 3179,4274 3179,10031 0,14340 -212,283 -388,636 -494,954 -247,848 -177,1695 212,2543 424,777 1130,1342 1907,1590 5086,1625 8442,6287 8371,11515 -35,423 36,812 177,1201 283,812 883,1483 1696,1907 812,353 1660,424 2472,141 1272,-424 2614,-636 3921,-636 3921,0 7453,1837 9749,5051 211,283 494,566 777,778 565,388 1236,600 1907,600 177,0 389,0 565,-35 883,-142 1625,-636 2119,-1343 3073,-4274 8513,-6075 13564,-4380zm-16283 2261c-2897,-3991 -7524,-6358 -12433,-6358 -1625,0 -3285,247 -4804,777 0,-6711 -4274,-12610 -10597,-14623 3956,-5440 3956,-12680 35,-18120 6358,-2084 10597,-7912 10632,-14623 1519,494 3109,742 4733,742 4910,0 9573,-2367 12469,-6323 2896,3956 7559,6323 12504,6323 1660,0 3285,-248 4733,-778 0,6641 4203,12469 10561,14624 -3920,5439 -3920,12645 0,18120 -6358,2084 -10561,7912 -10596,14623 -6394,-2049 -13246,177 -17237,5616z"/>
    <path class="fil0" d="M56974 30459c-5404,-2261 -9643,-6464 -11939,-11868 -388,-954 -1342,-1590 -2366,-1590 -1025,0 -1978,636 -2367,1554 -2296,5369 -6499,9573 -11868,11869 -954,388 -1590,1306 -1590,2331 0,1024 601,1942 1555,2366 5192,2261 9501,6641 11868,12010 424,953 1342,1554 2331,1554 0,0 0,0 0,0 1024,0 1943,-601 2331,-1554 2261,-5228 6641,-9573 12045,-11974 918,-424 1519,-1343 1519,-2367 35,-1024 -565,-1943 -1519,-2331zm-14341 13599c-2543,-4804 -6463,-8760 -11126,-11268 4804,-2473 8689,-6323 11162,-11126 2472,4839 6393,8724 11232,11161 -4839,2579 -8795,6535 -11268,11233z"/>
    <path class="fil0" d="M32319 64615c-812,-530 -1872,-283 -2401,494l-9255 14165 -4627 -9502 -9643 -35 9678 -14836c530,-812 283,-1872 -494,-2401 -813,-530 -1872,-283 -2402,494l-13175 20204 13881 35 6358 13034 12575 -19250c530,-813 318,-1908 -495,-2402z"/>
    <path class="fil0" d="M72198 52994c-530,-812 -1590,-1024 -2402,-494 -813,529 -1025,1589 -495,2401l9714 14836 -9678 35 -4628 9502 -9254 -14165c-530,-812 -1589,-1024 -2402,-494 -812,530 -1024,1589 -494,2402l12610 19250 6358 -13034 13881 -35 -13210 -20204z"/>
   </g>
  </g>
 </g>
</svg>
