<?xml version="1.0" encoding="UTF-8"?>
<!DOCTYPE svg PUBLIC "-//W3C//DTD SVG 1.0//EN" "http://www.w3.org/TR/2001/REC-SVG-20010904/DTD/svg10.dtd">
<!-- Creator: CorelDRAW X7 -->
<svg xmlns="http://www.w3.org/2000/svg" xml:space="preserve" width="65.0092mm" height="64.5639mm" version="1.0" style="shape-rendering:geometricPrecision; text-rendering:geometricPrecision; image-rendering:optimizeQuality; fill-rule:evenodd; clip-rule:evenodd"
viewBox="0 0 1626 1615"
 xmlns:xlink="http://www.w3.org/1999/xlink">
 <defs>
  <style type="text/css">
   <![CDATA[
    .fil0 {fill:#FEFEFE;fill-rule:nonzero}
   ]]>
  </style>
 </defs>
 <g id="Layer_x0020_1">
  <metadata id="CorelCorpID_0Corel-Layer"/>
  <path class="fil0" d="M1173 1430l-263 0c-1,18 -4,41 -8,63 -3,23 -7,47 -7,67l293 0c-1,-23 -5,-49 -9,-73 -3,-21 -6,-41 -6,-57zm-1154 -987c-16,-4 -23,-16 -16,-46l1 -6 5 -1c17,-4 32,-8 47,-11l0 -1 18 -4 3 -1c7,-2 20,-6 31,-6 15,0 28,6 28,26 0,28 -20,33 -49,39 -5,1 -11,2 -17,4l-6 1c-17,5 -33,9 -45,6zm126 117c-16,15 -32,27 -39,27 -3,0 -6,-1 -8,-1 -6,-2 -12,-6 -16,-11 -4,-5 -6,-11 -6,-18 0,-2 0,-5 1,-8 2,-7 18,-24 35,-40 21,-19 44,-37 50,-37 6,0 12,1 16,3 6,2 10,7 13,12 2,4 3,9 3,14 0,4 -1,8 -2,11 -2,6 -25,29 -47,48zm387 -353c-5,3 -10,6 -14,6 -6,0 -15,-2 -21,-6 -1,-1 -2,-2 -3,-2 19,22 31,42 38,64 2,6 4,13 5,20 2,-23 23,-27 43,-30 2,0 5,-1 8,-1 5,-1 9,-2 15,-3 13,-4 28,-7 40,-7 20,0 34,7 34,31 0,24 -29,29 -49,32 -2,1 -4,1 -6,1 -3,1 -6,2 -11,3 -11,3 -27,7 -40,7 -14,0 -26,-4 -31,-15 2,16 2,32 2,51l0 5c0,12 -2,24 -6,36 2,-6 6,-10 10,-12 5,-3 10,-4 16,-4 5,0 11,1 16,2l1 0c20,6 74,22 85,36 4,6 6,12 6,17 0,5 -2,10 -4,14 -2,4 -5,8 -8,10l0 0c-5,4 -10,5 -15,5 -12,0 -34,-7 -50,-13 -4,-2 -8,-3 -11,-4 -3,-1 -6,-2 -9,-3 -19,-5 -39,-10 -39,-36 0,-3 0,-5 1,-8 -10,30 -28,59 -53,83l-3 2c2,-1 4,-1 5,-2 6,-2 12,-2 19,0 8,3 17,10 27,22 5,7 12,14 19,21 23,22 44,43 20,66 -17,17 -32,9 -43,-2 -3,-3 -5,-6 -7,-9l0 0c-1,-1 -2,-2 -2,-2 -3,-3 -6,-6 -9,-10 -17,-17 -43,-44 -43,-57 0,-6 2,-13 6,-19l1 -1c-35,29 -80,49 -132,49 -2,0 -4,0 -7,0 -22,-1 -41,-4 -60,-10 -19,-6 -36,-14 -52,-25 -11,-7 -20,-14 -28,-21 -7,-8 -15,-17 -23,-27 -17,-22 -27,-44 -32,-68 -6,-23 -7,-47 -7,-73 0,-11 2,-23 5,-34 -1,2 -3,4 -5,7 -5,5 -13,8 -22,9 -8,1 -21,-3 -32,-6 -3,-1 -5,-2 -8,-3 -3,-1 -7,-2 -12,-3 -24,-6 -55,-13 -55,-36 0,-7 3,-15 7,-21 4,-6 10,-10 18,-10 6,0 49,7 78,18 20,7 35,17 35,29 0,2 -1,4 -1,6 3,-8 6,-15 9,-23 10,-21 24,-40 39,-56 -5,2 -10,3 -15,3 -15,0 -28,-15 -36,-24l0 0c-3,-4 -5,-6 -6,-8 -1,-2 -3,-3 -5,-6 -4,-4 -8,-9 -13,-13 -11,-10 -22,-20 -25,-30 -1,-2 -1,-5 -1,-8 0,-5 1,-10 4,-15 3,-6 8,-10 16,-12 3,-2 7,-2 12,-2 6,0 36,24 58,48 14,16 26,32 26,42 0,4 0,8 -2,11 26,-23 58,-39 92,-46l-1 0c-13,0 -22,-15 -28,-35 -8,-27 -12,-65 -12,-77 0,-7 3,-13 7,-17 5,-5 11,-8 17,-8 31,0 34,18 38,41 0,3 1,7 2,11 1,7 3,14 4,21 3,13 6,25 6,35 0,12 -4,22 -14,26 8,-1 17,-2 26,-2 20,0 41,3 61,9 -2,-1 -3,-2 -5,-3 -6,-5 -10,-12 -10,-19 0,-2 9,-45 21,-75 7,-17 15,-32 25,-35 3,-1 5,-1 7,-1 6,0 12,2 17,5 6,3 11,8 13,14 0,3 1,5 1,7 0,16 -7,34 -13,50 -1,4 -3,9 -4,12 -1,3 -2,6 -3,9l0 0c-5,18 -11,42 -33,42l-1 0c24,9 47,23 66,42 3,3 6,6 9,9 -1,-1 -1,-2 -2,-4l0 0c-2,-5 -2,-11 1,-19 4,-8 12,-18 27,-30 7,-5 13,-11 20,-17 14,-14 28,-27 43,-27 6,0 14,2 19,7 5,4 9,10 9,17 0,21 -10,29 -30,46l-9 7c-3,3 -5,5 -7,6 -4,3 -7,6 -12,11 -3,3 -9,8 -15,12zm-173 411c-4,-15 -8,-32 -8,-46 0,-4 3,-8 6,-13 2,-4 6,-8 9,-9l0 0c4,-3 8,-5 12,-5 5,-2 10,-1 15,2 4,2 8,5 11,10 4,6 7,14 9,23 1,7 3,14 5,22 4,17 8,34 8,48 0,21 -7,34 -31,34 -25,0 -29,-24 -32,-43 0,-3 -1,-5 -1,-9 -1,-5 -2,-9 -3,-14zm-138 46c-5,-5 -8,-12 -8,-20 0,-11 9,-38 14,-54l3 -8c0,-2 1,-4 1,-6 6,-18 12,-41 38,-41 21,0 27,12 27,29 0,16 -7,36 -12,49 -1,4 -2,7 -3,9 0,2 -1,4 -2,7 -5,21 -10,43 -38,43 -9,0 -15,-3 -20,-8l0 0zm167 123c-3,-17 -8,-40 -8,-55 0,-6 2,-13 7,-19 4,-5 10,-9 17,-9 32,0 33,10 39,44 1,4 2,10 3,16l3 17c3,15 5,28 8,44 1,8 3,18 6,29 8,38 18,83 1,97 -4,3 -9,5 -15,6 -4,1 -9,0 -13,-1 -5,-2 -9,-5 -13,-10 -4,-6 -8,-15 -10,-28 -2,-10 -4,-20 -6,-31 -2,-11 -3,-21 -5,-30 -2,-10 -4,-20 -6,-31 -2,-10 -4,-21 -6,-30l-2 -9zm1044 -67c-4,5 -10,8 -15,8 -10,0 -160,-51 -242,-80 -25,-8 -44,-15 -50,-17l-380 -130 -7 -2c-13,-4 -34,-11 -42,-17 -6,-7 -9,-14 -9,-22 0,-4 0,-8 2,-11 1,-4 3,-7 6,-10 4,-5 10,-8 18,-8 16,0 53,13 81,23 9,4 17,7 22,8l141 48c8,3 15,6 22,8 8,3 16,6 24,9l378 129c2,1 6,2 9,3 20,6 41,12 48,29l1 1c2,6 2,7 1,15 -1,5 -5,11 -8,16zm-1150 -243c17,7 36,10 59,10 37,0 74,-16 101,-43 25,-25 42,-59 42,-99 0,-44 -17,-80 -42,-106 -19,-20 -42,-34 -68,-40 -26,-7 -53,-7 -79,0 -35,11 -67,35 -91,75 -14,26 -14,50 -14,79l0 8 0 0c0,13 6,29 14,45 10,18 22,35 34,45 13,11 27,20 44,26zm853 792l-181 0c0,17 -1,47 -2,72 -1,10 -1,20 -2,27l191 0 0 -2c0,-7 0,-14 0,-20 0,-6 -1,-9 -2,-12l0 0c0,-4 -1,-8 -1,-16 -1,-5 0,-10 0,-15 0,-6 0,-12 0,-17 -1,-6 -1,-8 -2,-11 0,-1 -1,-3 -1,-6zm216 0l-155 0c0,9 1,17 1,24 1,10 1,19 2,30 1,10 0,19 0,27 0,4 0,8 0,11 0,4 0,7 1,7l161 0c-1,-10 -2,-19 -3,-28 -1,-8 -3,-17 -3,-25 -1,-7 -1,-12 -2,-16 0,-5 -1,-9 -1,-16 0,-3 0,-5 0,-7 0,-4 0,-7 -1,-7zm-616 99l154 0c1,-16 2,-33 3,-49 2,-17 3,-33 3,-50l-151 0c-1,0 -1,3 -1,7 0,3 0,6 0,10l-8 82zm820 -99l-145 0c1,17 3,32 5,47l0 0c2,17 4,34 4,52l148 0c-3,-15 -5,-32 -6,-49 -2,-17 -3,-34 -6,-50zm-1038 99l159 0c0,-12 2,-26 4,-41 2,-18 4,-38 5,-58l-156 0c-1,6 -2,12 -2,19 -2,11 -3,22 -4,33 0,8 -2,16 -3,24 -1,8 -2,16 -3,23zm616 -215c-1,-12 -2,-23 -3,-31 -23,0 -32,0 -41,0 -33,0 -67,0 -100,0l-9 -1c-12,0 -17,0 -17,0 0,0 0,4 0,12 0,4 1,10 1,18l-3 60 174 0c-1,-16 -1,-38 -2,-58zm-383 58l149 0 3 -89 -143 0c-1,11 -3,24 -4,38 -2,17 -5,34 -5,51zm584 -89l-147 0 6 89 149 0c0,-12 -1,-22 -2,-33 0,-4 -1,-8 -1,-14 -1,-7 -2,-16 -3,-25 0,-6 -1,-12 -2,-17zm207 0l-145 0c1,10 3,24 5,39 2,19 4,39 5,50l145 0c-2,-9 -3,-21 -5,-34 -2,-20 -4,-43 -5,-55zm-1007 89l157 0c1,-14 1,-25 3,-37l1 -13c1,-11 2,-27 4,-39l-154 0c-1,7 -2,15 -3,23 -1,8 -2,15 -3,22l0 0c-1,9 -2,18 -3,28 -1,5 -2,11 -2,16zm588 -237l-149 0c-1,7 -1,14 -2,20 -1,8 -1,15 -1,24 0,13 -1,22 -2,31 0,4 -1,9 -1,14l161 0c0,-2 -1,-3 -1,-4 -1,-3 -1,-6 -2,-12l-3 -73zm-359 89l142 0 6 -89 -140 0 -8 89zm762 -89l-143 0c1,16 3,33 5,49 2,15 3,28 4,40l142 0c0,-8 -2,-19 -3,-28 -1,-7 -1,-13 -2,-16 -1,-10 -2,-19 -2,-27 -1,-6 -1,-12 -1,-18zm-976 89l155 0c0,-15 2,-30 4,-45 2,-15 4,-30 5,-44l-153 0 -11 89zm774 -89l-142 0c0,1 0,3 1,4 0,3 1,6 1,12l3 73 145 0c-2,-8 -3,-18 -4,-29 -1,-21 -3,-46 -4,-60zm-207 -139l-136 0c-1,0 -2,5 -2,11 0,4 1,7 1,11 0,6 0,12 0,17l-1 10c-1,10 -2,19 -2,31l143 0 -3 -80zm-337 80l137 0c1,-8 2,-18 3,-29 1,-18 1,-37 2,-51l-133 0c-1,0 -1,3 -1,6 0,3 0,5 0,8l-8 66zm-208 -33c-2,11 -3,22 -5,30l34 0c32,0 63,0 94,0 4,0 8,0 11,0 10,1 14,1 15,1 0,-1 -1,-3 0,-8 0,-4 0,-10 1,-18 2,-10 3,-20 4,-30 0,-7 0,-14 1,-22l-150 0c-1,11 -3,30 -5,47zm737 -47l-133 0 5 80 137 0c-1,-16 -3,-32 -5,-48 -2,-11 -3,-22 -4,-32zm201 0l-141 0c1,7 2,17 3,27 2,18 4,40 4,53l142 0c-1,-8 -2,-17 -3,-25 -2,-18 -4,-36 -5,-55zm-713 589c-108,1 -303,3 -331,-4l-4 -1 -2 -4c-9,-19 -4,-50 0,-74l1 -11c12,-86 23,-191 33,-290 5,-43 9,-85 13,-123 2,-14 3,-27 5,-40 1,-14 3,-28 5,-41 0,-4 0,-8 1,-11 2,-30 4,-51 45,-51l959 0c41,0 43,20 45,52l1 9 53 491 2 14c2,22 5,45 4,68l0 3 -13 16 -381 0c1,4 1,8 2,12 1,6 2,12 2,16l1 5c1,12 2,19 4,31 1,6 1,9 2,12 2,17 6,37 6,54l203 0c15,0 24,8 28,18 2,3 3,7 3,11 0,4 -1,8 -2,12 -4,10 -12,17 -23,17l-827 0c-7,0 -10,-1 -13,-2 -2,0 -3,-1 -5,-1l-5 -1 -2 -8 0 0c-1,-5 -3,-12 -3,-19 0,-14 6,-27 31,-27l199 0c1,-21 4,-44 8,-68 3,-22 6,-45 7,-65 -14,0 -31,0 -52,0z"/>
 </g>
</svg>
