<?xml version="1.0" encoding="UTF-8"?>
<!DOCTYPE svg PUBLIC "-//W3C//DTD SVG 1.0//EN" "http://www.w3.org/TR/2001/REC-SVG-20010904/DTD/svg10.dtd">
<!-- Creator: CorelDRAW X7 -->
<svg xmlns="http://www.w3.org/2000/svg" xml:space="preserve" width="64.2584mm" height="58.3303mm" version="1.0" style="shape-rendering:geometricPrecision; text-rendering:geometricPrecision; image-rendering:optimizeQuality; fill-rule:evenodd; clip-rule:evenodd"
viewBox="0 0 876 795"
 xmlns:xlink="http://www.w3.org/1999/xlink">
 <defs>
  <style type="text/css">
   <![CDATA[
    .fil0 {fill:#FEFEFE}
   ]]>
  </style>
 </defs>
 <g id="Layer_x0020_1">
  <metadata id="CorelCorpID_0Corel-Layer"/>
  <path class="fil0" d="M0 18l0 759c0,4 3,9 7,12 4,4 9,6 14,6l832 0c11,0 17,-5 20,-13 1,-3 2,-6 2,-9 0,-4 0,-7 -2,-10 -2,-7 -8,-12 -18,-12l-810 0 0 -730c0,-5 -3,-10 -6,-14 -2,-2 -5,-4 -8,-5 -3,-1 -6,-2 -9,-2 -5,0 -11,2 -15,6 -2,1 -4,4 -5,7 -1,2 -2,4 -2,5zm713 203c-38,39 -129,131 -136,136l-10 6 -7 -10c-4,-5 -31,-32 -50,-50 -6,-7 -12,-12 -16,-16 -22,-22 -36,-8 -55,11 -4,4 -7,8 -9,9l-273 274c-8,8 -11,15 -11,20 0,3 0,5 1,7 1,3 3,5 5,7l0 0c5,5 12,8 17,8 10,0 21,-11 29,-20l0 0c2,-3 5,-6 6,-7l37 -37c3,-3 8,-7 23,-23 57,-56 193,-191 198,-198l6 -10 10 7c9,6 24,22 37,35 3,4 7,7 10,11 5,4 9,9 13,14 13,13 22,22 35,22 11,0 32,-22 48,-38 4,-5 8,-9 10,-11l60 -60 12 -12 129 -121 0 22c0,5 0,6 0,21 -1,46 -1,149 0,155 2,9 7,14 14,16 3,1 7,2 11,1 3,0 7,-1 10,-3 5,-3 9,-9 9,-17l0 -262c0,-4 -3,-8 -7,-12 -4,-4 -9,-6 -14,-6l-257 0c-1,0 -2,0 -3,0 -6,1 -10,4 -14,8 -3,4 -5,9 -5,15 0,1 0,2 0,3 1,4 2,7 4,9 1,3 4,4 7,6 5,4 10,4 17,3 3,0 6,0 10,0l192 0 -93 87z"/>
 </g>
</svg>
