<?xml version="1.0" encoding="UTF-8"?>
<!DOCTYPE svg PUBLIC "-//W3C//DTD SVG 1.0//EN" "http://www.w3.org/TR/2001/REC-SVG-20010904/DTD/svg10.dtd">
<!-- Creator: CorelDRAW X7 -->
<svg xmlns="http://www.w3.org/2000/svg" xml:space="preserve" width="54.2837mm" height="62.2863mm" version="1.0" style="shape-rendering:geometricPrecision; text-rendering:geometricPrecision; image-rendering:optimizeQuality; fill-rule:evenodd; clip-rule:evenodd"
viewBox="0 0 967 1109"
 xmlns:xlink="http://www.w3.org/1999/xlink">
 <defs>
  <style type="text/css">
   <![CDATA[
    .fil0 {fill:#FEFEFE;fill-rule:nonzero}
   ]]>
  </style>
 </defs>
 <g id="Layer_x0020_1">
  <metadata id="CorelCorpID_0Corel-Layer"/>
  <path class="fil0" d="M78 114l0 0c-1,0 -1,0 0,0zm0 -2l0 -1 -3 0c1,0 2,1 3,1zm335 769c22,4 45,7 72,7 24,0 48,-3 71,-8 25,-5 48,-13 66,-22 33,-16 62,-35 86,-57 25,-23 46,-49 65,-81 7,-11 13,-24 18,-39 7,-16 12,-34 16,-50l1 -2c3,-11 6,-24 6,-35 0,-8 -2,-14 -10,-14l-642 0c-3,0 -6,1 -8,2 -1,2 -2,4 -2,6 0,7 1,18 3,28 3,15 7,30 10,38 9,27 20,52 35,76 14,23 31,45 52,64 9,8 16,15 24,21 7,6 15,12 25,19 7,5 16,10 25,15 9,5 18,9 26,12 20,8 40,15 61,20zm70 -794c65,0 127,13 183,36 59,24 112,60 156,104 8,9 17,18 26,28 4,5 8,10 12,15l0 -97c0,-21 0,-26 0,-31l0 -24c0,-2 0,-2 0,-4l0 0c0,0 0,-1 0,-4 0,-12 0,-22 -1,-31 -1,-7 -3,-14 -8,-20l0 -1c-3,-3 -5,-6 -9,-9 -3,-3 -7,-6 -11,-8l0 0c-3,-2 -6,-4 -10,-5 -3,-1 -6,-1 -8,-1l-657 0c-4,0 -7,0 -10,1 -3,1 -7,2 -10,4 -3,2 -7,4 -10,7 -3,3 -7,7 -10,10 -5,7 -7,13 -8,21 -2,9 -2,19 -2,32 0,0 0,0 0,0l0 1 0 0 0 1c0,1 1,3 0,4 0,19 0,34 1,51l0 1c0,33 0,72 0,102 4,-5 8,-10 12,-15 8,-10 17,-19 26,-28 44,-44 97,-80 155,-104 57,-23 119,-36 183,-36zm438 671c-4,8 -8,17 -12,26 -4,8 -9,16 -14,25l0 0 0 0c-1,24 -1,84 0,132l0 32 0 20c0,6 0,8 0,9l0 0 0 0c0,15 0,27 -2,37 -2,11 -6,21 -15,33 -3,5 -8,10 -13,15 -5,4 -10,8 -16,11 -6,4 -12,7 -18,8 -6,2 -12,3 -18,3l-659 0c-3,0 -6,0 -10,-1 -3,-1 -7,-2 -10,-3 -4,-1 -8,-3 -11,-4 -4,-2 -7,-4 -10,-5 -41,-26 -42,-60 -42,-99l0 0 0 -6c0,-20 0,-38 0,-54l0 0 0 0c0,-5 0,-11 0,-16 0,-32 0,-64 0,-96 0,-4 0,-7 1,-10l0 0 0 0c0,-3 0,-5 -1,-7 -1,-2 -3,-5 -4,-8 -2,-3 -4,-6 -5,-9 -3,-5 -5,-9 -7,-12 -2,-4 -4,-8 -6,-12l0 -1c-1,-3 -3,-6 -5,-9 -8,-18 -15,-35 -20,-52 -6,-17 -11,-34 -14,-51 -4,-18 -6,-35 -8,-54 -1,-19 -2,-38 -2,-58 0,-19 1,-36 3,-53 3,-17 6,-33 10,-49 4,-15 9,-30 14,-45 6,-15 12,-30 19,-45l1 -4c1,-2 2,-3 3,-5 1,-2 2,-4 3,-7 1,-2 2,-4 4,-6l3 -6c2,-5 5,-10 8,-15 1,0 3,-4 3,-4l0 0c0,-1 0,-2 1,-3 1,-24 0,-84 0,-132l0 0 0 0 0 -2c0,-24 -1,-44 -1,-50 0,-2 0,-4 1,-5l-1 0 0 -1 0 0 0 0c0,-33 0,-52 18,-75 5,-5 9,-10 15,-15 5,-4 10,-7 16,-11 5,-3 11,-5 17,-7 6,-1 12,-2 19,-2l657 0c6,0 12,1 18,3 6,2 12,4 18,8 48,28 46,48 46,98l0 9c0,20 0,38 0,54l0 0 0 0c0,7 0,14 0,20 0,31 0,61 0,92 0,4 0,7 0,10l0 0c0,7 0,8 5,15 3,6 7,12 10,19 4,8 8,16 12,24 4,8 7,16 11,24 3,8 5,15 8,22 9,29 16,58 20,87 5,30 6,59 5,89 -1,29 -5,58 -11,87 -6,29 -15,56 -27,84l0 0c-1,1 -2,3 -3,6 -1,2 -2,4 -4,7zm-62 103c-4,5 -8,10 -12,15 -8,9 -17,19 -25,27 -44,44 -97,80 -156,104 -56,24 -118,36 -183,36 -64,0 -126,-12 -183,-36 -58,-24 -111,-60 -155,-104 -9,-9 -18,-18 -26,-28 -5,-5 -9,-10 -13,-16 0,25 0,50 0,75l0 2c0,21 0,26 0,31l0 30 0 0c0,15 0,28 3,40 4,11 10,21 23,29 1,1 3,2 5,3 3,1 5,2 8,3 2,1 4,1 5,2 2,0 3,0 4,0l659 0c3,0 5,0 8,-1l0 0c4,-1 7,-3 10,-5 4,-2 7,-4 11,-7 3,-3 6,-6 8,-10 5,-7 8,-13 9,-20 1,-8 1,-17 1,-29l0 -9c0,-19 0,-34 0,-51l0 0c0,-17 0,-34 -1,-51 0,-11 0,-21 0,-30zm-62 -610c-41,-40 -90,-73 -144,-96 -52,-21 -110,-33 -170,-33 -60,0 -117,12 -169,33 -54,23 -103,56 -144,96 -41,41 -74,90 -97,144 -21,53 -33,110 -33,170 0,37 5,74 13,109 9,35 23,69 40,101l1 3 2 3c2,3 4,6 5,8 2,3 3,5 3,6 9,15 19,30 30,44 11,14 23,27 36,40 41,41 90,73 144,96 52,22 109,33 169,33 60,0 118,-11 170,-33 54,-23 103,-55 144,-96 13,-14 25,-27 37,-42 11,-15 21,-30 31,-46 4,-11 12,-24 19,-37l1 -3 1 0 3 -7c13,-28 22,-57 28,-87 7,-30 10,-61 10,-92 0,-60 -12,-117 -34,-170 -22,-54 -55,-103 -96,-144zm-70 96l-57 0 0 57 57 0 0 -57zm-282 411c-32,0 -39,0 -39,-29 0,-6 13,-25 21,-36 1,-2 2,-3 3,-5l49 -73 0 0c5,-7 10,-11 16,-13 5,-1 9,-1 14,0l0 0c4,2 8,4 11,8 3,5 5,11 5,18 0,10 -14,30 -28,49 -8,12 -16,23 -21,31 6,-1 11,-1 16,-1 8,0 16,-1 23,-1 27,0 46,5 46,29 0,10 -46,77 -66,106l-8 12c-4,6 -9,10 -15,11 -5,2 -10,2 -14,0 -4,-1 -8,-3 -11,-7 -4,-4 -6,-9 -6,-15 0,-13 22,-43 38,-67 5,-7 9,-12 12,-17l-7 0c-12,0 -24,0 -36,0l-3 0zm175 -411l-59 0 0 57 59 0 0 -57zm-107 0l-59 0 0 57 59 0 0 -57zm-107 0l-59 0 0 57 59 0 0 -57zm-109 0l-57 0 0 57 57 0 0 -57zm-108 15c0,-7 1,-14 1,-21 0,-14 5,-25 13,-32 9,-8 21,-12 35,-12l491 0c14,0 26,4 34,12 9,7 14,18 14,32 0,7 0,14 0,21 1,8 1,16 1,23 0,36 -6,69 -43,69l-504 0c-37,0 -43,-33 -43,-69 0,-7 1,-15 1,-23zm-20 167l629 0c18,0 32,5 43,14 11,8 19,21 22,37 2,9 1,22 -2,37 -3,20 -9,43 -13,53 -9,28 -20,52 -32,74 -12,21 -26,41 -43,62 -17,20 -36,37 -56,53 -68,53 -154,79 -239,78 -86,-1 -171,-30 -241,-88 -20,-17 -39,-37 -57,-60l0 0 -31 -47 0 -1c-2,-3 -3,-5 -4,-7 -2,-3 -3,-6 -6,-11 -3,-8 -5,-13 -7,-17 -4,-9 -7,-15 -14,-37 -9,-25 -17,-59 -14,-87 4,-30 21,-53 65,-53z"/>
 </g>
</svg>
