<?xml version="1.0" encoding="UTF-8"?>
<!DOCTYPE svg PUBLIC "-//W3C//DTD SVG 1.0//EN" "http://www.w3.org/TR/2001/REC-SVG-20010904/DTD/svg10.dtd">
<!-- Creator: CorelDRAW X7 -->
<svg xmlns="http://www.w3.org/2000/svg" xml:space="preserve" width="49.8516mm" height="59.5386mm" version="1.0" style="shape-rendering:geometricPrecision; text-rendering:geometricPrecision; image-rendering:optimizeQuality; fill-rule:evenodd; clip-rule:evenodd"
viewBox="0 0 1581 1889"
 xmlns:xlink="http://www.w3.org/1999/xlink">
 <defs>
  <style type="text/css">
   <![CDATA[
    .fil0 {fill:#FEFEFE;fill-rule:nonzero}
   ]]>
  </style>
 </defs>
 <g id="Layer_x0020_1">
  <metadata id="CorelCorpID_0Corel-Layer"/>
  <path class="fil0" d="M193 153l0 1514 -50 0 -27 -1 0 3 -12 -3c-19,0 -31,-1 -38,-2 -1,0 -1,-1 0,-2l0 -2c-2,6 -2,32 -1,80l4 13 -4 0c1,24 1,48 1,64l1140 0 0 -151 -3 0c-4,0 -10,-1 -15,-1 -8,0 -13,0 -16,1 -4,0 -8,0 -12,0l-1 0c-12,0 -23,1 -27,1l-49 0 0 -1427 0 -1 0 -32 0 0 0 0c0,-24 1,-43 -2,-59 -1,-7 -3,-13 -5,-20 -3,-7 -6,-14 -11,-22 -2,-2 -4,-5 -6,-7 -3,-3 -5,-6 -9,-9 -3,-3 -7,-6 -10,-9 -4,-3 -8,-5 -12,-8 -3,-2 -7,-3 -11,-5 -3,-2 -7,-3 -11,-4 -3,-1 -6,-2 -9,-2l0 0c-3,-1 -6,-1 -10,-1l-699 0c-5,0 -11,1 -16,2 -5,1 -11,3 -16,5 -6,3 -12,6 -17,10 -6,4 -11,8 -16,13 -5,5 -9,10 -13,15 -4,6 -7,11 -10,17 -2,5 -4,10 -5,15 -2,5 -2,10 -2,15zm313 949l3 0c-1,-2 -2,-4 -3,-5l0 5zm6 0l1 0c0,-1 -1,-2 -1,0zm249 -18l-2 0c1,2 2,2 2,0zm-695 578c1,-3 2,-6 0,-3 0,0 0,1 0,1l0 2zm464 -1184c0,-6 0,-14 0,-25 0,-19 12,-23 34,-23 4,0 10,0 16,1 8,0 16,0 27,0l11 0 0 88 -11 0c-14,0 -23,0 -31,0 -20,1 -31,1 -38,-5 -9,-7 -9,-17 -8,-36zm-108 617c0,3 6,-4 13,-4 8,0 5,0 6,0l0 0 0 0 3 0c10,0 19,0 29,0l33 0 0 1c6,-1 14,-1 25,-1l36 0 -3 36c-1,5 -4,15 -9,26 -5,12 -12,27 -20,42 -10,19 -21,40 -32,59 -14,26 -28,50 -33,59 -2,3 -3,6 -5,8 -1,3 -2,6 -4,9l-4 9c-2,3 -3,6 -5,9 -2,2 -4,7 -6,10 -7,12 -19,32 -22,41 2,-1 4,-3 7,-5l0 0 327 -233c3,-2 6,-5 9,-7l0 0c6,-4 12,-8 19,-13l1 0c0,0 0,0 0,0 26,-18 58,-39 65,-45 -1,0 -3,0 -4,0 -5,-1 -10,-1 -16,-1 -11,0 -21,0 -32,0l-33 0 0 -1c-6,1 -15,1 -26,1l-55 0 116 -219 5 -9c6,-9 2,-3 9,-14 7,-14 17,-31 25,-46 4,-8 8,-15 10,-20l-1 0c-1,0 -13,9 -24,18 -2,2 -8,5 -10,7 -3,3 -6,5 -9,6 -84,61 -295,194 -357,256 -7,4 -14,9 -20,14 -4,4 -8,6 -8,7zm19 62l0 0c-48,0 -85,1 -85,-62 0,-38 34,-61 57,-76l6 -4 351 -251c3,-2 6,-4 8,-6 3,-2 5,-3 8,-5 20,-16 41,-32 64,-32 8,0 17,1 25,4 8,2 16,6 22,11 7,6 13,13 17,21 3,8 5,16 5,26 0,20 -27,69 -46,102 0,0 -6,12 -6,12 -2,3 -4,6 -6,10l-65 122 8 0c9,0 18,0 27,0 10,0 19,0 27,1 9,2 18,4 26,7 11,5 19,12 26,22 6,9 9,21 9,36 0,36 -54,72 -95,101l-1 0c0,0 0,0 0,0 -10,7 -20,14 -27,18 -92,79 -233,167 -336,241l0 -1c-6,4 -11,6 -17,9 -9,3 -18,5 -26,5 -5,0 -10,-1 -14,-2 -5,-1 -10,-3 -14,-5 -4,-2 -7,-5 -10,-7 -3,-3 -6,-6 -9,-10 -4,-6 -7,-13 -10,-19 -2,-8 -4,-16 -4,-22 0,-12 6,-26 13,-41 6,-14 14,-27 20,-38l0 0c1,-1 2,-3 5,-8 4,-6 6,-11 8,-15l0 0c1,-3 3,-7 5,-10 2,-4 4,-8 6,-12 5,-8 18,-31 32,-57 11,-18 22,-39 31,-57l4 -8c-13,0 -26,0 -39,0l0 0zm-115 -921l0 359c0,1 0,3 0,3l0 1c1,0 1,0 2,1 2,0 4,0 7,0l609 0c0,0 1,0 1,0l1 0 0 -373 -619 0c0,0 0,1 -1,1 0,2 0,5 0,8zm-61 359l0 -359c0,-9 1,-18 4,-27 2,-8 6,-15 11,-22 6,-7 13,-12 21,-16 8,-4 17,-5 27,-5l623 0c6,0 14,2 23,6l0 0c6,3 13,8 19,14 4,5 8,11 10,18 3,7 4,13 4,21l0 381c0,8 -2,15 -6,22 -4,7 -9,14 -16,19 -6,4 -12,8 -19,11 -7,2 -15,4 -22,4l-609 0c-10,0 -19,-2 -27,-5 -9,-3 -16,-7 -23,-13 -6,-6 -12,-14 -15,-22 -4,-8 -5,-17 -5,-27zm588 -76l-72 0 0 -88 84 0 0 88 -12 0zm-123 0l-73 0 0 -88 84 0 0 88 -11 0zm-598 1087l0 -1453c0,-10 1,-19 3,-29 2,-9 6,-18 10,-27 4,-9 9,-18 15,-26 6,-8 13,-16 20,-23 8,-8 16,-14 24,-20 9,-6 18,-11 27,-15 9,-4 19,-7 28,-10 10,-2 19,-3 29,-3l699 0c6,0 12,0 18,1 6,1 13,3 19,5 5,1 11,3 17,6 6,3 12,6 17,9 6,3 12,7 18,11l0 0c5,4 10,8 15,13 5,4 10,9 14,14 4,5 8,10 11,15l0 0c8,12 13,22 17,33 4,10 7,21 8,32 2,10 3,21 3,32 0,11 0,23 0,37l0 1 0 0 0 0c0,7 0,16 0,31l0 361c4,1 9,2 13,4 7,3 14,5 20,8 4,2 8,3 12,5 25,10 47,18 65,33 11,8 20,17 27,29 7,12 13,25 16,42 6,31 4,365 3,556l0 12c0,46 -1,82 -1,102l0 31 0 0c0,4 1,9 1,13 1,7 3,14 6,19 2,4 5,7 8,9 4,3 10,4 18,4 36,0 36,-38 36,-63l-5 -14 5 0 0 -848c-5,-1 -10,-2 -15,-4 -9,-3 -17,-6 -25,-11 -7,-4 -15,-10 -22,-16 -7,-5 -14,-12 -20,-19 -7,-7 -12,-15 -17,-23 -5,-8 -10,-17 -13,-25 -4,-9 -7,-18 -9,-27 -2,-9 -3,-18 -3,-26l0 -196c0,-22 12,-33 27,-39 11,-4 23,-5 35,-5l0 -115c0,-4 1,-7 2,-10 0,-3 2,-5 4,-8l0 0c0,-2 2,-3 3,-4 1,-1 2,-3 3,-4 2,-1 4,-3 6,-4 2,-1 4,-2 6,-3 2,-1 4,-2 6,-2l0 0c2,-1 5,-1 7,-2l2 0 10 0 3 0c2,1 4,1 5,2 1,0 2,0 3,1l1 0 2 1c1,0 2,1 3,2l1 -1 8 8c1,1 2,3 3,4l2 0 3 11c0,2 1,4 1,6 0,2 0,4 0,6l0 112 39 0 0 -108c0,-2 1,-5 1,-7 0,-2 1,-5 1,-7 1,-3 2,-5 3,-8 2,-2 3,-5 5,-7 1,-1 3,-3 4,-4l0 0c2,-2 4,-3 5,-4 2,-2 4,-3 6,-4 2,0 4,-1 6,-2l4 -1 15 0 4 1c3,1 5,2 8,3 2,1 4,3 6,4l0 0c2,2 4,3 6,5 1,2 3,4 4,6 2,3 4,6 5,9 1,3 2,6 3,9l0 1 0 0c1,3 1,5 1,8 1,3 1,6 1,9l0 97c30,1 62,5 62,55 0,18 0,35 0,51l2 13 -1 0c1,38 1,75 -3,110 -4,40 -14,75 -35,103 -6,8 -13,16 -19,22 -7,6 -14,11 -21,15 -6,4 -13,7 -19,10 -6,3 -11,5 -17,7l0 0c-4,2 -7,3 -11,4l-3 2 0 708 0 0 0 184 0 0 0 8c0,3 -1,6 -1,8 0,3 0,5 -1,8 0,2 -1,5 -1,7 -1,3 -2,5 -3,7 -1,3 -2,5 -3,7 -1,2 -2,4 -3,7 -4,7 -8,13 -12,18 -4,6 -9,12 -14,16 -6,5 -12,10 -18,14 -6,4 -12,7 -19,10 -7,2 -14,4 -21,6 -7,1 -14,2 -21,2 -7,0 -15,0 -22,-1 -7,-1 -14,-3 -21,-6 -8,-2 -15,-6 -21,-10 -7,-3 -13,-8 -18,-12 -6,-5 -11,-11 -15,-16 -4,-6 -8,-12 -11,-18 -3,-7 -5,-14 -7,-21 -2,-7 -4,-14 -5,-22 -1,-7 -2,-14 -2,-22 -1,-7 -1,-15 -1,-23l0 -80 0 0c0,-76 -1,-152 0,-228l-6 0 6 -14c1,-106 4,-336 -3,-352 0,-1 -1,-2 -2,-4 -1,-1 -2,-3 -4,-4 -2,-2 -5,-4 -7,-6 -4,-2 -7,-5 -11,-6l0 0c-4,-3 -8,-5 -13,-7 -5,-2 -10,-4 -15,-5 -5,-2 -9,-4 -13,-5l0 914 15 -1c4,0 9,0 14,0 6,-1 11,-1 15,-1 7,0 14,1 21,1 7,1 14,1 20,3 11,2 20,7 26,13 8,7 12,17 12,28l0 189c0,2 0,4 -1,7 0,2 0,4 -1,6 -1,3 -2,6 -4,8 -1,3 -3,6 -5,8l-22 22 -10 -11 -1175 0c-4,0 -7,0 -10,-1 -3,-1 -6,-2 -9,-3 -4,-2 -7,-4 -10,-6 -3,-3 -5,-6 -7,-9l0 0c-2,-3 -3,-7 -4,-10 -1,-3 -2,-7 -3,-11 0,-3 -1,-6 -1,-9 0,-3 0,-6 0,-9 0,-18 0,-31 0,-42 0,-12 -1,-23 -1,-34l-4 -13 4 0c0,-26 -1,-45 0,-61 2,-20 4,-33 11,-43 7,-12 18,-18 34,-20 12,-2 26,-2 45,-2l0 -4 13 4c7,0 15,1 25,1zm1297 -1118c5,-3 10,-5 14,-6l1 -1c9,-3 18,-7 26,-12 4,-2 8,-5 12,-9l0 0c4,-3 8,-7 12,-13 28,-37 26,-113 25,-185l-3 -13 2 0 0 -19c0,-10 0,-19 0,-23 0,-6 -5,6 -10,6l0 0 0 0 -18 0 0 0 -161 0 0 0 -15 0 0 -11 0 11c-3,0 -6,-1 -8,-1l0 180c0,5 0,9 1,14 1,5 3,10 5,15 2,6 5,11 8,17 4,5 7,10 12,15 4,4 8,9 12,12l1 0c4,4 9,7 13,10 5,3 9,5 13,6 4,1 8,2 12,2l46 4 0 1z"/>
 </g>
</svg>
